# File exported by Houdini 20.5.370 (www.sidefx.com)
# 728 points
# 728 vertices
# 182 primitives
# Bounds: [-3.00855017, 7.1635251, -5.1288538] to [5.78175831, 16.3224888, 5.08248663]
g 
v -2.27293086 9.41743851 -2.13918805 0.591063082 0.664778113 0.571063042
v -2.32465529 8.5282135 -2.29807258 0.591063082 0.664778113 0.571063042
v -1.59412873 8.96457672 -2.04892373 0.591063082 0.664778113 0.571063042
v -1.6269151 8.10002995 -2.34167528 0.591063082 0.664778113 0.571063042
v -2.343256 9.54107571 -1.84580529 0.651261806 0.626469791 0.631261826
v -2.07434273 9.92463017 -1.97384357 0.651261806 0.626469791 0.631261826
v -2.19488645 9.01077843 -1.39718127 0.651261806 0.626469791 0.631261826
v -1.90504611 9.47075748 -1.52256501 0.651261806 0.626469791 0.631261826
v -2.02462792 8.90329647 -1.61140203 0.300000012 0.850000024 0.280000001
v -1.54637051 7.90330505 -2.45815063 0.300000012 0.850000024 0.280000001
v -1.02494001 9.32483292 -1.59350705 0.300000012 0.850000024 0.280000001
v -0.632172287 8.30459595 -2.4812963 0.300000012 0.850000024 0.280000001
v -1.72857678 8.46283913 -2.82234335 0.747769713 0.565055728 0.727769673
v -1.65499306 8.14465237 -2.61697507 0.747769713 0.565055728 0.727769673
v -1.90403616 8.37628651 -2.85565495 0.747769713 0.565055728 0.727769673
v -1.83400571 7.98638916 -2.65951014 0.747769713 0.565055728 0.727769673
v -2.8885057 9.91079235 -1.4453913 0.440553665 0.760556817 0.420553625
v -2.0003593 9.49258709 -1.30981505 0.440553665 0.760556817 0.420553625
v -2.67089272 11.1962681 -1.59368634 0.440553665 0.760556817 0.420553625
v -1.83701825 11.0734644 -1.61525404 0.440553665 0.760556817 0.420553625
v -1.58430779 9.00946522 -1.95085597 0.300000012 0.850000024 0.280000001
v -1.78086758 9.52401543 -1.53489363 0.300000012 0.850000024 0.280000001
v -1.21201396 9.19514847 -1.39011145 0.300000012 0.850000024 0.280000001
v -1.4293896 9.67030239 -0.801391959 0.300000012 0.850000024 0.280000001
v -2.70473623 11.7531643 -2.36560702 0.368162155 0.806624115 0.348162174
v -2.87008953 11.2591648 -1.42905712 0.368162155 0.806624115 0.348162174
v -2.54944134 10.7930498 -0.93155396 0.368162155 0.806624115 0.348162174
v -2.38458252 11.5978127 -1.70852232 0.368162155 0.806624115 0.348162174
v -1.0182333 9.56296539 -1.63454521 0.300000012 0.850000024 0.280000001
v -1.28230143 8.24477482 -1.96657276 0.300000012 0.850000024 0.280000001
v 0.240862906 9.4485836 -2.02766991 0.300000012 0.850000024 0.280000001
v -0.00893354416 8.02749157 -2.40032959 0.300000012 0.850000024 0.280000001
v -1.3955574 8.06180191 -2.634552 0.300000012 0.850000024 0.280000001
v -1.08618033 8.1532793 -2.13401699 0.300000012 0.850000024 0.280000001
v -1.29518294 7.93898106 -3.30502534 0.300000012 0.850000024 0.280000001
v -0.970635355 7.9044714 -2.78540134 0.300000012 0.850000024 0.280000001
v -2.1025033 9.4765377 -1.1957438 0.301149964 0.849268258 0.281149954
v -2.31793284 10.8788815 -1.18170607 0.301149964 0.849268258 0.281149954
v -1.12349463 9.91205502 -1.04194975 0.301149964 0.849268258 0.281149954
v -1.44155824 11.4746647 -0.990307152 0.301149964 0.849268258 0.281149954
v -2.00951552 11.161293 -1.43665218 0.300000012 0.850000024 0.280000001
v -2.42904568 11.636013 -1.66580534 0.300000012 0.850000024 0.280000001
v -1.78293777 11.4686289 -0.632475257 0.300000012 0.850000024 0.280000001
v -2.04145384 12.1087255 -0.938483238 0.300000012 0.850000024 0.280000001
v -0.442473829 9.2081337 -1.45371008 0.300000012 0.850000024 0.280000001
v 0.0208022892 8.32853794 -2.48849678 0.300000012 0.850000024 0.280000001
v 0.435308933 9.97764874 -1.57742715 0.300000012 0.850000024 0.280000001
v 0.811009467 9.34376907 -2.78862643 0.300000012 0.850000024 0.280000001
v -0.496682107 8.68900681 -2.67458916 0.300000012 0.850000024 0.280000001
v 0.173397109 8.23228645 -2.60005069 0.300000012 0.850000024 0.280000001
v -1.00059044 8.11120224 -2.8022418 0.300000012 0.850000024 0.280000001
v -0.323302269 7.81676531 -2.85921097 0.300000012 0.850000024 0.280000001
v -1.69215441 7.67554569 -2.95802402 0.479009151 0.736085117 0.459009111
v -0.89258641 7.99526501 -2.92667818 0.479009151 0.736085117 0.459009111
v -1.23285329 7.1635251 -3.93275023 0.479009151 0.736085117 0.459009111
v -0.521326542 7.51215887 -3.85731459 0.479009151 0.736085117 0.459009111
v -2.60059977 11.8891563 -1.39706707 0.54386425 0.694813669 0.523864269
v -3.00855017 12.662612 -1.76549792 0.54386425 0.694813669 0.523864269
v -1.78294539 12.5173006 -1.30738258 0.54386425 0.694813669 0.523864269
v -2.16756558 13.5668821 -1.65401793 0.54386425 0.694813669 0.523864269
v -1.81530774 11.5538139 -0.600306928 0.300000012 0.850000024 0.280000001
v -1.50182462 12.5566454 -1.44977272 0.300000012 0.850000024 0.280000001
v -1.15424252 11.0029917 -0.30405122 0.300000012 0.850000024 0.280000001
v -0.701282144 12.0928192 -1.06193995 0.300000012 0.850000024 0.280000001
v 0.545701206 10.2446966 -1.70307946 0.300000012 0.850000024 0.280000001
v 0.273443222 8.99411106 -2.34570146 0.300000012 0.850000024 0.280000001
v 1.35575962 9.27191448 -2.07554054 0.300000012 0.850000024 0.280000001
v 1.328058 8.85896111 -2.84894848 0.300000012 0.850000024 0.280000001
v 0.0644242764 8.45840549 -2.551373 0.300000012 0.850000024 0.280000001
v 0.385399044 8.91021156 -2.42721248 0.300000012 0.850000024 0.280000001
v 0.127746016 8.50904369 -3.29911041 0.300000012 0.850000024 0.280000001
v 0.548336685 9.47345924 -3.53308797 0.300000012 0.850000024 0.280000001
v -0.880199134 8.28958225 -2.946208 0.300000012 0.850000024 0.280000001
v 0.387662113 8.31562042 -3.47437119 0.300000012 0.850000024 0.280000001
v -1.09605408 7.26365423 -3.45299888 0.300000012 0.850000024 0.280000001
v 0.00621731579 7.33402491 -3.78667235 0.300000012 0.850000024 0.280000001
v -0.37168029 9.97740841 -1.07289815 0.353454262 0.815983713 0.333454251
v -0.97029686 11.1728802 -0.496061146 0.353454262 0.815983713 0.333454251
v 0.666812778 11.0157604 -1.13854837 0.353454262 0.815983713 0.333454251
v -0.315705925 11.5161209 -0.231842786 0.353454262 0.815983713 0.333454251
v 0.927860975 10.0448151 -0.617980838 0.84976244 0.500151217 0.829762459
v 0.928500891 10.0458851 -0.618003845 0.84976244 0.500151217 0.829762459
v 0.928157151 10.0444212 -0.616912067 0.84976244 0.500151217 0.829762459
v 0.928337276 10.0447083 -0.6169222 0.84976244 0.500151217 0.829762459
v -2.30198693 12.3150759 -0.65401125 0.300000012 0.850000024 0.280000001
v -2.23231888 13.9221706 -1.61285412 0.300000012 0.850000024 0.280000001
v -0.957168698 12.1248875 -0.807440877 0.300000012 0.850000024 0.280000001
v -0.937038839 13.7500648 -1.86784124 0.300000012 0.850000024 0.280000001
v 0.75110209 9.58813095 -2.77302313 0.305833042 0.846288085 0.285833031
v 1.32437038 9.12388325 -2.88832402 0.305833042 0.846288085 0.285833031
v 0.420922756 9.61166573 -3.44895458 0.305833042 0.846288085 0.285833031
v 0.943161011 9.98466206 -3.08076596 0.305833042 0.846288085 0.285833031
v -0.398265898 8.29125977 -2.89342761 0.300000012 0.850000024 0.280000001
v 0.800469995 9.45117664 -3.72705317 0.300000012 0.850000024 0.280000001
v -0.200656176 7.64274788 -3.6885221 0.300000012 0.850000024 0.280000001
v 0.364315361 8.36215973 -4.43275309 0.300000012 0.850000024 0.280000001
v -0.493157446 7.84055424 -3.92815208 0.495236695 0.725758493 0.475236684
v -0.0478099361 7.57687998 -3.80255103 0.495236695 0.725758493 0.475236684
v -0.648861527 8.17678547 -4.27900648 0.495236695 0.725758493 0.475236684
v -0.107405037 7.95706129 -4.0070138 0.495236695 0.725758493 0.475236684
v -0.691337407 8.47022343 -4.28051805 0.594936967 0.662312925 0.574936926
v -0.643494248 8.39968777 -4.78167486 0.594936967 0.662312925 0.574936926
v 0.18595013 8.50530624 -4.41883945 0.594936967 0.662312925 0.574936926
v 0.175208956 8.5448904 -4.89175653 0.594936967 0.662312925 0.574936926
v 1.4283936 9.68866158 0.102798313 0.793059289 0.536235034 0.773059249
v 1.35617495 9.67776775 0.198977634 0.793059289 0.536235034 0.773059249
v 1.39589894 9.70483017 0.448689938 0.793059289 0.536235034 0.773059249
v 1.447173 9.7470665 0.388106257 0.793059289 0.536235034 0.773059249
v -2.38649273 14.0932732 -1.42823017 0.350531846 0.817843378 0.330531836
v -1.94968784 14.0943718 -2.65051556 0.350531846 0.817843378 0.330531836
v -1.67647588 13.6295271 -1.12645459 0.350531846 0.817843378 0.330531836
v -1.35258961 13.7153797 -2.4132216 0.350531846 0.817843378 0.330531836
v -0.989380777 12.2959299 -0.772733808 0.300000012 0.850000024 0.280000001
v -1.52566814 13.644248 -1.27395666 0.300000012 0.850000024 0.280000001
v -0.510095894 14.1813087 -1.37381101 0.300000012 0.850000024 0.280000001
v -0.22682941 12.7304516 -1.01322532 0.300000012 0.850000024 0.280000001
v -0.401687473 12.4870939 -0.319820523 0.84592098 0.502595782 0.825920939
v -0.396091133 12.4896946 -0.313540816 0.84592098 0.502595782 0.825920939
v -0.398348868 12.487711 -0.315565646 0.84592098 0.502595782 0.825920939
v -0.396720886 12.5027409 -0.306505024 0.84592098 0.502595782 0.825920939
v 0.180901647 9.88933945 -3.28678489 0.300000012 0.850000024 0.280000001
v 1.34560156 10.5742874 -3.45605659 0.300000012 0.850000024 0.280000001
v 0.744481921 10.469099 -3.82515597 0.300000012 0.850000024 0.280000001
v 1.57094526 10.7175684 -3.8032074 0.300000012 0.850000024 0.280000001
v 0.514455616 9.72307014 -3.53872275 0.329457223 0.831254542 0.309457213
v -0.42977643 8.28787518 -3.82681918 0.329457223 0.831254542 0.309457213
v 0.117767185 8.75391293 -4.97386551 0.329457223 0.831254542 0.309457213
v 0.96074152 9.85643291 -4.97525024 0.329457223 0.831254542 0.309457213
v 0.25206247 9.99105167 -4.71581268 0.844186842 0.503699303 0.824186802
v 0.250019342 9.95967579 -4.70094967 0.844186842 0.503699303 0.824186802
v 0.258525789 10.0068607 -4.70829105 0.844186842 0.503699303 0.824186802
v 0.255593717 9.97630787 -4.69047976 0.844186842 0.503699303 0.824186802
v 1.16732097 9.91928959 0.48179847 0.795168996 0.534892499 0.775169015
v 1.05514586 10.0760441 0.610606074 0.795168996 0.534892499 0.775169015
v 1.32058609 9.98859882 0.62272805 0.795168996 0.534892499 0.775169015
v 1.23123682 10.0913525 0.713716388 0.795168996 0.534892499 0.775169015
v 1.77679241 9.98723888 0.438384145 0.300000012 0.850000024 0.280000001
v 1.42185998 9.93989754 0.67000258 0.300000012 0.850000024 0.280000001
v 2.14849854 9.9428196 0.984758496 0.300000012 0.850000024 0.280000001
v 2.21791697 9.68953896 0.697726429 0.300000012 0.850000024 0.280000001
v -0.0348176658 14.5070181 -3.52768612 0.393499345 0.790500462 0.373499334
v -0.714993358 14.6013288 -2.96332431 0.393499345 0.790500462 0.373499334
v 0.836763263 14.225626 -2.82705998 0.393499345 0.790500462 0.373499334
v 0.145944878 14.338191 -2.52431035 0.393499345 0.790500462 0.373499334
v -1.15138566 14.0776558 -1.62656116 0.310296088 0.843447983 0.290296078
v -1.4057548 13.8995914 -2.34740543 0.310296088 0.843447983 0.290296078
v -0.690268695 14.3351641 -1.18079293 0.310296088 0.843447983 0.290296078
v -1.05447149 14.1924639 -1.99011934 0.310296088 0.843447983 0.290296078
v -0.317668557 14.732255 -3.42919374 0.362763226 0.810059786 0.342763215
v -1.10296381 15.0901165 -2.68390799 0.362763226 0.810059786 0.342763215
v 0.075633496 14.1060925 -2.49389005 0.362763226 0.810059786 0.342763215
v -1.08841157 14.4766178 -1.91969395 0.362763226 0.810059786 0.342763215
v -0.453378975 14.3643837 -1.40364015 0.300000012 0.850000024 0.280000001
v -0.755063593 12.5397844 -0.487037361 0.300000012 0.850000024 0.280000001
v 0.557982206 13.586916 -1.73766255 0.300000012 0.850000024 0.280000001
v 0.607896864 12.2928009 -0.593023777 0.300000012 0.850000024 0.280000001
v 1.49859238 10.0374889 0.58465904 0.300000012 0.850000024 0.280000001
v 1.74767613 8.52987194 0.0763123333 0.300000012 0.850000024 0.280000001
v 2.77711511 10.4820795 0.409730166 0.300000012 0.850000024 0.280000001
v 3.12337637 8.7225914 -0.0604670048 0.300000012 0.850000024 0.280000001
v 1.92518616 8.43209076 -1.05804873 0.589205027 0.665960431 0.569205046
v 1.98398888 8.60307312 -0.2151317 0.589205027 0.665960431 0.569205046
v 2.2355938 8.42304802 -1.17890489 0.589205027 0.665960431 0.569205046
v 2.12539959 8.4918108 -0.515456676 0.589205027 0.665960431 0.569205046
v 1.64826524 8.88960075 -2.05616021 0.358029902 0.813071907 0.338029861
v 2.44375944 8.11203861 -2.56644773 0.358029902 0.813071907 0.338029861
v 2.95825553 8.49757576 -1.87823272 0.358029902 0.813071907 0.338029861
v 3.37461376 8.13809204 -2.34672666 0.358029902 0.813071907 0.338029861
v 0.252949417 9.9663353 -3.35389996 0.300000012 0.850000024 0.280000001
v 1.45775962 10.7544794 -4.42500591 0.300000012 0.850000024 0.280000001
v 0.0776663423 9.74358559 -4.27201843 0.300000012 0.850000024 0.280000001
v 1.03016996 10.0869074 -4.73147774 0.300000012 0.850000024 0.280000001
v 1.01106548 10.9334879 -4.10977411 0.301755905 0.848882675 0.281755865
v 1.23617136 10.9085226 -3.5664835 0.301755905 0.848882675 0.281755865
v 1.11410868 12.0602818 -3.47257566 0.301755905 0.848882675 0.281755865
v 0.863828301 12.3669434 -4.27464247 0.301755905 0.848882675 0.281755865
v 0.649769425 10.7957811 -4.55519056 0.817418039 0.520734012 0.797417998
v 0.69394052 10.6613159 -4.5116396 0.817418039 0.520734012 0.797417998
v 0.700485647 10.8085575 -4.52125931 0.817418039 0.520734012 0.797417998
v 0.73170203 10.6748543 -4.5040369 0.817418039 0.520734012 0.797417998
v 1.11948204 9.68738174 1.02656913 0.300000012 0.850000024 0.280000001
v 1.28513181 10.5116062 0.941038311 0.300000012 0.850000024 0.280000001
v 2.15184999 9.61724091 0.76862371 0.300000012 0.850000024 0.280000001
v 2.64813185 10.4673653 0.629018188 0.300000012 0.850000024 0.280000001
v 2.61315107 10.4107904 0.557462454 0.300000012 0.850000024 0.280000001
v 2.10821104 9.79785061 0.781184137 0.300000012 0.850000024 0.280000001
v 1.97195721 10.3440628 1.2124728 0.300000012 0.850000024 0.280000001
v 3.04911089 11.1593027 1.12915993 0.300000012 0.850000024 0.280000001
v 0.56695354 12.4277277 -4.59362793 0.692280054 0.600367248 0.672280073
v 0.418639183 11.9480877 -4.29247904 0.692280054 0.600367248 0.672280073
v 1.02429509 12.9479942 -4.45007563 0.692280054 0.600367248 0.672280073
v 0.716736913 12.4240904 -4.1730504 0.692280054 0.600367248 0.672280073
v 0.214678407 14.7999363 -3.72149754 0.300000012 0.850000024 0.280000001
v 0.813383043 13.3467541 -4.34729528 0.300000012 0.850000024 0.280000001
v 0.579903603 14.0746498 -2.49619484 0.300000012 0.850000024 0.280000001
v 1.13190877 12.9300156 -3.33079886 0.300000012 0.850000024 0.280000001
v 0.510328174 13.6839266 -2.47774959 0.300000012 0.850000024 0.280000001
v 0.245989829 14.181612 -2.62499428 0.300000012 0.850000024 0.280000001
v 0.462753117 13.9335241 -1.61971414 0.300000012 0.850000024 0.280000001
v 0.599578142 12.9273348 -0.978205085 0.300000012 0.850000024 0.280000001
v -0.632797718 14.5987606 -1.19846404 0.300000012 0.850000024 0.280000001
v 0.102152713 13.8556929 -2.53789473 0.300000012 0.850000024 0.280000001
v -0.433709353 14.676899 -2.581604 0.300000012 0.850000024 0.280000001
v -0.220130354 13.3563147 -0.969367623 0.300000012 0.850000024 0.280000001
v 0.0582142472 13.2579002 -1.23858476 0.300000012 0.850000024 0.280000001
v 0.68633461 12.406353 -0.663059294 0.300000012 0.850000024 0.280000001
v 0.654326797 12.7875586 -1.03474259 0.300000012 0.850000024 0.280000001
v 1.11220241 14.1282434 -0.641945779 0.300000012 0.850000024 0.280000001
v 2.12083793 10.2314367 0.974681973 0.300000012 0.850000024 0.280000001
v 2.93364477 8.79998684 0.0794609189 0.300000012 0.850000024 0.280000001
v 3.13107157 11.3349829 1.04900086 0.300000012 0.850000024 0.280000001
v 3.91626501 10.3311558 0.369570702 0.300000012 0.850000024 0.280000001
v 2.42079401 9.15086079 -0.535737514 0.300000012 0.850000024 0.280000001
v 3.26861691 8.84522057 -0.200206727 0.300000012 0.850000024 0.280000001
v 2.08577275 8.53653049 -0.499487817 0.300000012 0.850000024 0.280000001
v 2.54404378 7.88826752 -0.323199868 0.300000012 0.850000024 0.280000001
v 2.59534335 8.16368389 -0.751079738 0.823664308 0.516759157 0.803664327
v 2.63233423 8.22279453 -0.708266675 0.823664308 0.516759157 0.803664327
v 2.68091297 8.12512493 -0.77452594 0.823664308 0.516759157 0.803664327
v 2.72272754 8.19296837 -0.729116261 0.823664308 0.516759157 0.803664327
v 3.02076983 8.3762579 -1.89155519 0.343205959 0.822505355 0.323205948
v 2.74731159 7.81632519 -1.39475095 0.343205959 0.822505355 0.323205948
v 2.58650303 8.07795715 -0.404934466 0.343205959 0.822505355 0.323205948
v 3.21425319 8.89785194 -1.05213153 0.343205959 0.822505355 0.323205948
v 2.41604066 8.03348351 -1.43128419 0.300000012 0.850000024 0.280000001
v 3.37199783 8.24249268 -2.36779118 0.300000012 0.850000024 0.280000001
v 3.12249827 9.04970264 -1.00955105 0.300000012 0.850000024 0.280000001
v 4.02160931 9.21941853 -1.91838837 0.300000012 0.850000024 0.280000001
v 2.90690923 8.81334972 -3.01218319 0.310801685 0.843126237 0.290801674
v 3.27302027 8.39638901 -2.33022404 0.310801685 0.843126237 0.290801674
v 3.10922861 9.21784592 -2.99769449 0.310801685 0.843126237 0.290801674
v 3.38740706 8.91847324 -2.45023394 0.310801685 0.843126237 0.290801674
v 3.48260975 9.52601624 -2.77179885 0.770740151 0.550438106 0.75074017
v 3.51006699 9.59138393 -2.88399935 0.770740151 0.550438106 0.75074017
v 3.71915841 9.52502728 -2.75710917 0.770740151 0.550438106 0.75074017
v 3.7767961 9.60184002 -2.87402034 0.770740151 0.550438106 0.75074017
v 0.485855579 10.6660118 -3.63779783 0.300000012 0.850000024 0.280000001
v 0.958921492 11.7011337 -5.1288538 0.300000012 0.850000024 0.280000001
v 0.684519589 10.2798729 -4.4945631 0.300000012 0.850000024 0.280000001
v 0.991837859 12.3866749 -4.36922789 0.300000012 0.850000024 0.280000001
v 0.600026429 13.1853971 -4.07113171 0.302455515 0.848437428 0.282455504
v 1.34389949 12.4761047 -3.73104572 0.302455515 0.848437428 0.282455504
v 0.51750797 12.4402313 -4.0099411 0.302455515 0.848437428 0.282455504
v 1.49138463 13.0301542 -3.59703588 0.302455515 0.848437428 0.282455504
v 2.10829186 9.80472755 1.57114828 0.848068953 0.501228869 0.828068972
v 2.11343312 9.80230236 1.57294285 0.848068953 0.501228869 0.828068972
v 2.11075068 9.79870224 1.57770586 0.848068953 0.501228869 0.828068972
v 2.11599064 9.79659176 1.57833803 0.848068953 0.501228869 0.828068972
v 2.59737253 10.636301 0.799962699 0.484893531 0.732340515 0.46489352
v 3.01290059 11.0611706 1.20433474 0.484893531 0.732340515 0.46489352
v 2.59075427 9.52368546 1.76549125 0.484893531 0.732340515 0.46489352
v 2.98886061 10.1490088 2.05276108 0.484893531 0.732340515 0.46489352
v 1.10723794 14.3881264 -3.01053405 0.300000012 0.850000024 0.280000001
v 1.30557525 12.8513861 -3.46673751 0.300000012 0.850000024 0.280000001
v 0.680001497 13.1361341 -1.03816998 0.300000012 0.850000024 0.280000001
v 0.880365133 12.7405396 -2.31326938 0.300000012 0.850000024 0.280000001
v 2.95075274 11.4909182 1.20339155 0.300000012 0.850000024 0.280000001
v 3.11281252 9.97303867 1.05100179 0.300000012 0.850000024 0.280000001
v 3.75296879 12.1898432 0.609803438 0.300000012 0.850000024 0.280000001
v 4.26960039 10.8458729 0.654181004 0.300000012 0.850000024 0.280000001
v 3.04266286 9.04672813 -0.0573104024 0.300000012 0.850000024 0.280000001
v 3.50940299 10.0699081 0.701094627 0.300000012 0.850000024 0.280000001
v 4.12820864 10.3563824 -0.0119292587 0.300000012 0.850000024 0.280000001
v 3.87238669 9.47637653 -0.732199073 0.300000012 0.850000024 0.280000001
v 3.25649285 9.04998016 -0.229228407 0.300000012 0.850000024 0.280000001
v 2.98854995 8.54049969 -0.748736262 0.300000012 0.850000024 0.280000001
v 3.13346481 8.86024666 -0.983914614 0.300000012 0.850000024 0.280000001
v 3.52554345 9.0227766 -0.409077257 0.300000012 0.850000024 0.280000001
v 3.04763627 9.1100893 -0.962327063 0.316349864 0.839595556 0.296349853
v 3.36431241 8.86379337 -1.37656641 0.316349864 0.839595556 0.296349853
v 4.00025558 9.67416191 -0.853761196 0.316349864 0.839595556 0.296349853
v 4.38306332 8.98186493 -1.30372906 0.316349864 0.839595556 0.296349853
v 3.16670656 8.45937443 -2.26832247 0.300000012 0.850000024 0.280000001
v 3.33195519 9.12399864 -1.39886785 0.300000012 0.850000024 0.280000001
v 3.95398498 9.2329092 -2.91069174 0.300000012 0.850000024 0.280000001
v 4.05023909 9.76874542 -2.12342191 0.300000012 0.850000024 0.280000001
v 3.16680527 9.35548401 -2.26264501 0.490635455 0.728686571 0.470635414
v 3.93941927 9.77716637 -3.10312819 0.490635455 0.728686571 0.470635414
v 3.84410548 10.0345402 -2.02510476 0.490635455 0.728686571 0.470635414
v 4.66951609 10.4073868 -2.87981796 0.490635455 0.728686571 0.470635414
v 0.737374723 12.0537596 -3.17873812 0.300000012 0.850000024 0.280000001
v 1.45122838 12.9441433 -3.5715785 0.300000012 0.850000024 0.280000001
v 1.07382917 12.8804426 -2.88116956 0.300000012 0.850000024 0.280000001
v 1.53964508 13.4272537 -2.89167619 0.300000012 0.850000024 0.280000001
v 1.68876886 8.80157185 2.30332756 0.753584743 0.561355233 0.733584762
v 1.31949592 8.62689304 2.44092464 0.753584743 0.561355233 0.733584762
v 1.22139728 8.71682739 2.85074854 0.753584743 0.561355233 0.733584762
v 1.56898153 8.87918663 2.75547719 0.753584743 0.561355233 0.733584762
v 1.58296525 8.98196983 2.20738029 0.549997687 0.690910578 0.529997647
v 2.65305519 9.17319012 1.8285675 0.549997687 0.690910578 0.529997647
v 1.76742101 9.22017384 2.94945145 0.549997687 0.690910578 0.529997647
v 2.76036286 9.49809837 2.5206604 0.549997687 0.690910578 0.529997647
v 2.91825294 11.26618 1.27953053 0.406671375 0.782118261 0.386671364
v 3.36328673 10.7744503 1.76337421 0.406671375 0.782118261 0.386671364
v 3.11904001 11.5838394 1.20720828 0.406671375 0.782118261 0.386671364
v 4.03802252 11.1537075 1.64274633 0.406671375 0.782118261 0.386671364
v 2.59269953 9.25554657 1.7872771 0.300000012 0.850000024 0.280000001
v 3.62955809 10.3717442 1.57518995 0.300000012 0.850000024 0.280000001
v 2.21095467 9.34666157 3.107198 0.300000012 0.850000024 0.280000001
v 3.1166482 10.6528721 2.91100955 0.300000012 0.850000024 0.280000001
v 0.649416566 13.2079573 -1.00567007 0.300000012 0.850000024 0.280000001
v 1.31439114 13.2299852 -2.73110723 0.300000012 0.850000024 0.280000001
v 1.25074625 13.7589865 -1.79207814 0.300000012 0.850000024 0.280000001
v 1.47841609 13.2443867 -2.87753773 0.300000012 0.850000024 0.280000001
v 0.632512569 12.9402876 -0.972151041 0.385849416 0.795368612 0.365849376
v 1.3134923 12.8778362 -0.102749854 0.385849416 0.795368612 0.365849376
v 1.98365259 14.322731 -1.21818924 0.385849416 0.795368612 0.365849376
v 1.89273381 13.7250099 -0.486148894 0.385849416 0.795368612 0.365849376
v 1.63837481 13.5186815 0.438838124 0.748980999 0.564284921 0.728980958
v 1.79511452 13.8834114 0.429820597 0.748980999 0.564284921 0.728980958
v 1.98712361 13.8735027 0.635213256 0.748980999 0.564284921 0.728980958
v 2.12382555 14.1825409 0.526405454 0.748980999 0.564284921 0.728980958
v 2.88512349 11.982254 1.37821996 0.300000012 0.850000024 0.280000001
v 3.87979364 10.9590263 0.954464138 0.300000012 0.850000024 0.280000001
v 3.47350001 13.3662128 0.986736894 0.300000012 0.850000024 0.280000001
v 4.64687872 12.5193338 0.637936294 0.300000012 0.850000024 0.280000001
v 3.81322908 10.6789436 0.420403063 0.300000012 0.850000024 0.280000001
v 4.41830826 11.1269989 0.522949398 0.300000012 0.850000024 0.280000001
v 3.89804435 10.4562149 0.156736821 0.300000012 0.850000024 0.280000001
v 4.4525609 10.7250748 0.331277579 0.300000012 0.850000024 0.280000001
v 4.15893793 10.6136503 -0.0590404272 0.300000012 0.850000024 0.280000001
v 3.30033851 9.35540199 -0.292255491 0.300000012 0.850000024 0.280000001
v 4.23512936 9.01874638 -1.20924258 0.300000012 0.850000024 0.280000001
v 5.06232882 10.0290642 -0.967983603 0.300000012 0.850000024 0.280000001
v 3.9809258 9.43921089 -1.78209114 0.53071022 0.703184426 0.510710239
v 4.29390049 9.23673058 -1.28804898 0.53071022 0.703184426 0.510710239
v 4.0512023 9.77966785 -1.96435726 0.53071022 0.703184426 0.510710239
v 4.3550005 9.3793335 -1.45638061 0.53071022 0.703184426 0.510710239
v 3.8132925 10.343585 -2.85715127 0.63372314 0.637630761 0.613723159
v 3.91679645 10.6596136 -2.35334492 0.63372314 0.637630761 0.613723159
v 4.16060114 11.3739042 -3.20325637 0.63372314 0.637630761 0.613723159
v 4.35532188 11.5142641 -2.83026886 0.63372314 0.637630761 0.613723159
v 0.95153892 8.05505753 2.07762051 0.400313258 0.786164284 0.380313277
v -0.218550146 8.40250874 2.5330925 0.400313258 0.786164284 0.380313277
v 1.20763505 8.6535511 2.83383131 0.400313258 0.786164284 0.380313277
v 0.0248032808 9.23523998 3.08844018 0.400313258 0.786164284 0.380313277
v 1.21314466 8.75073719 2.83847737 0.300000012 0.850000024 0.280000001
v 1.68645656 8.96418476 3.06123519 0.300000012 0.850000024 0.280000001
v 1.82704568 8.80429459 3.95030022 0.300000012 0.850000024 0.280000001
v 1.39108574 8.84601974 3.69534826 0.300000012 0.850000024 0.280000001
v 1.65896153 9.13959122 3.06362963 0.300000012 0.850000024 0.280000001
v 2.38933659 8.93558407 3.01114964 0.300000012 0.850000024 0.280000001
v 2.26952076 9.54133511 3.51134229 0.300000012 0.850000024 0.280000001
v 2.8280251 9.05415344 3.30317402 0.300000012 0.850000024 0.280000001
v 2.85399389 10.1562891 2.26037812 0.300000012 0.850000024 0.280000001
v 4.11677742 10.8915405 1.62583447 0.300000012 0.850000024 0.280000001
v 2.90231776 10.8624859 3.1141777 0.300000012 0.850000024 0.280000001
v 4.03832722 11.7239552 2.52099252 0.300000012 0.850000024 0.280000001
v 3.38243294 12.1360912 0.918142498 0.300000012 0.850000024 0.280000001
v 3.74779058 11.2197781 1.90611589 0.300000012 0.850000024 0.280000001
v 3.3361454 13.1655531 1.08880961 0.300000012 0.850000024 0.280000001
v 3.52632642 12.5938292 1.95110989 0.300000012 0.850000024 0.280000001
v 2.79279804 9.49446106 2.64521861 0.300000012 0.850000024 0.280000001
v 3.13307977 10.4169817 2.93134904 0.300000012 0.850000024 0.280000001
v 2.68328166 9.22467613 3.42713809 0.300000012 0.850000024 0.280000001
v 2.75618386 10.1891994 3.83492517 0.300000012 0.850000024 0.280000001
v 1.72416437 13.3361607 -0.506693244 0.300461054 0.84970665 0.280461043
v 1.83058107 13.7080202 -0.43071714 0.300461054 0.84970665 0.280461043
v 2.10589695 13.9693451 0.731793165 0.300461054 0.84970665 0.280461043
v 2.17197943 13.9593735 0.262095332 0.300461054 0.84970665 0.280461043
v 1.88472617 13.8513269 0.923297048 0.32056877 0.836910784 0.300568759
v 1.7058723 14.5941648 1.1947031 0.32056877 0.836910784 0.300568759
v 2.98249245 14.2307959 1.25813472 0.32056877 0.836910784 0.300568759
v 2.59858418 14.4883575 1.56163371 0.32056877 0.836910784 0.300568759
v 1.07279038 15.8100214 1.59698498 0.844461203 0.50352478 0.824461222
v 1.07758689 15.823802 1.59136558 0.844461203 0.50352478 0.824461222
v 1.08867252 15.826972 1.60060847 0.844461203 0.50352478 0.824461222
v 1.08793139 15.840066 1.59819579 0.844461203 0.50352478 0.824461222
v 2.00707674 14.694582 0.831369638 0.300000012 0.850000024 0.280000001
v 1.39514875 16.047554 1.50315571 0.300000012 0.850000024 0.280000001
v 2.36090016 14.3450365 1.76185763 0.300000012 0.850000024 0.280000001
v 1.65693903 15.4165802 2.41698575 0.300000012 0.850000024 0.280000001
v 3.10021567 13.420248 1.3109045 0.300000012 0.850000024 0.280000001
v 3.9284966 12.2377481 1.2738198 0.300000012 0.850000024 0.280000001
v 4.09940577 14.1511192 0.280429363 0.300000012 0.850000024 0.280000001
v 4.56728268 13.0647335 0.406249166 0.300000012 0.850000024 0.280000001
v 4.12676907 11.2470627 0.743284285 0.300000012 0.850000024 0.280000001
v 4.25186491 12.3619547 1.01842618 0.300000012 0.850000024 0.280000001
v 4.68635607 11.3097296 0.0783441067 0.300000012 0.850000024 0.280000001
v 4.70346546 12.5655727 0.231810659 0.300000012 0.850000024 0.280000001
v 3.97278953 10.8049154 0.0675143003 0.300000012 0.850000024 0.280000001
v 5.12475109 11.4246502 -0.23518756 0.300000012 0.850000024 0.280000001
v 4.19185686 9.83191872 -0.290552288 0.300000012 0.850000024 0.280000001
v 5.26289797 10.4546795 -0.799421072 0.300000012 0.850000024 0.280000001
v 4.164783 9.31748676 -1.21098769 0.300000012 0.850000024 0.280000001
v 4.47995043 9.9989872 -0.521283627 0.300000012 0.850000024 0.280000001
v 4.89804316 9.61734009 -1.94023657 0.300000012 0.850000024 0.280000001
v 5.02222395 10.3259535 -1.24315202 0.300000012 0.850000024 0.280000001
v 4.08986759 9.76839447 -1.35159314 0.300000012 0.850000024 0.280000001
v 5.11439419 9.95952225 -2.36281347 0.300000012 0.850000024 0.280000001
v 4.85416794 10.6181431 -1.16103697 0.300000012 0.850000024 0.280000001
v 5.78175831 10.9505119 -1.81073689 0.300000012 0.850000024 0.280000001
v 4.7051878 11.031951 -2.36603045 0.748845458 0.564371109 0.728845477
v 4.90761089 10.7811136 -2.20997381 0.748845458 0.564371109 0.728845477
v 4.69549131 11.4016066 -2.42029142 0.748845458 0.564371109 0.728845477
v 4.84585476 11.2718267 -2.16834879 0.748845458 0.564371109 0.728845477
v 3.95973969 12.7428761 -2.73489141 0.742909193 0.568148732 0.722909212
v 4.16547966 12.5206966 -2.56229663 0.742909193 0.568148732 0.722909212
v 4.26215124 13.0667896 -2.71709895 0.742909193 0.568148732 0.722909212
v 4.47005033 12.9640532 -2.61860371 0.742909193 0.568148732 0.722909212
v -2.63039374 11.8938589 2.84367919 0.451051652 0.753876269 0.431051642
v -1.83004045 10.9254618 2.94812298 0.451051652 0.753876269 0.431051642
v -1.99212527 13.2232113 3.00240779 0.451051652 0.753876269 0.431051642
v -1.41727328 12.3273106 3.17934704 0.451051652 0.753876269 0.431051642
v -0.671959817 9.01371002 2.76698756 0.838824332 0.507111788 0.818824291
v -0.675452948 9.07193375 2.77980828 0.838824332 0.507111788 0.818824291
v -0.637420893 9.00535297 2.77111125 0.838824332 0.507111788 0.818824291
v -0.63538444 9.04467201 2.78482127 0.838824332 0.507111788 0.818824291
v -0.033564508 8.7402401 2.89372945 0.835622072 0.509149611 0.815622091
v -0.0643418655 8.72682095 2.90350747 0.835622072 0.509149611 0.815622091
v -0.0514671691 8.76014137 2.95292926 0.835622072 0.509149611 0.815622091
v -0.0906254649 8.75336266 2.94861984 0.835622072 0.509149611 0.815622091
v 0.705800295 8.11106205 3.34600282 0.361027837 0.811164141 0.341027826
v -0.0631386042 8.98896885 3.26646948 0.361027837 0.811164141 0.341027826
v 1.3687861 8.71892071 3.73997617 0.361027837 0.811164141 0.341027826
v 0.496470869 9.6536293 3.56613851 0.361027837 0.811164141 0.341027826
v 2.16184378 9.26344872 3.69510984 0.300000012 0.850000024 0.280000001
v 1.261994 8.78557301 3.88664389 0.300000012 0.850000024 0.280000001
v 1.19351506 10.0883579 4.58882093 0.300000012 0.850000024 0.280000001
v 2.12685657 10.5160255 4.36492109 0.300000012 0.850000024 0.280000001
v 1.6136117 9.05290604 4.16999245 0.300000012 0.850000024 0.280000001
v 2.66036439 8.95378304 3.5190587 0.300000012 0.850000024 0.280000001
v 3.31725836 10.2814484 3.36915255 0.300000012 0.850000024 0.280000001
v 2.21368575 10.7878046 4.24087334 0.300000012 0.850000024 0.280000001
v 2.900599 10.5592709 3.16070867 0.300000012 0.850000024 0.280000001
v 3.44271088 11.0866175 3.09132838 0.300000012 0.850000024 0.280000001
v 3.07257986 10.7014618 3.57653022 0.300000012 0.850000024 0.280000001
v 3.46286917 11.3894577 3.53888798 0.300000012 0.850000024 0.280000001
v 3.90976262 11.125246 1.78594828 0.300000012 0.850000024 0.280000001
v 3.27656698 11.3490658 3.22972059 0.300000012 0.850000024 0.280000001
v 3.94308138 12.9952192 1.56282127 0.300000012 0.850000024 0.280000001
v 3.39454865 13.1864014 2.82789516 0.300000012 0.850000024 0.280000001
v 3.09795189 13.1800394 1.30412436 0.399144351 0.78690815 0.379144341
v 3.79224777 13.0565376 1.65842938 0.399144351 0.78690815 0.379144341
v 2.56555104 13.0337934 1.09386313 0.399144351 0.78690815 0.379144341
v 3.35892797 13.1610622 1.42805457 0.399144351 0.78690815 0.379144341
v 2.23549724 14.5593615 -0.903385818 0.75596714 0.559839129 0.735967159
v 2.30727291 14.4337397 -1.11082053 0.75596714 0.559839129 0.735967159
v 2.41055083 14.6782465 -0.716071188 0.75596714 0.559839129 0.735967159
v 2.4396894 14.4816418 -0.914665401 0.75596714 0.559839129 0.735967159
v 2.3573215 14.9294405 -0.451039732 0.300000012 0.850000024 0.280000001
v 2.07332873 14.2074528 0.382384181 0.300000012 0.850000024 0.280000001
v 3.52166605 14.4326143 -0.623757482 0.300000012 0.850000024 0.280000001
v 3.14397311 13.7506218 0.242739826 0.300000012 0.850000024 0.280000001
v 2.13836622 14.1318798 0.724112153 0.300000012 0.850000024 0.280000001
v 2.75822568 14.3384647 -0.305815995 0.300000012 0.850000024 0.280000001
v 2.3405664 13.1817398 1.264395 0.300000012 0.850000024 0.280000001
v 3.20002389 13.4683037 0.168447524 0.300000012 0.850000024 0.280000001
v 2.12872863 13.917119 0.734914362 0.377958298 0.800390184 0.357958287
v 2.63079286 13.9671955 1.64263415 0.377958298 0.800390184 0.357958287
v 2.95215297 13.3722191 0.667173266 0.377958298 0.800390184 0.357958287
v 3.23210192 13.135994 1.52092242 0.377958298 0.800390184 0.357958287
v 2.38330793 13.8363562 1.86607742 0.300000012 0.850000024 0.280000001
v 2.49787378 14.41712 1.65082288 0.300000012 0.850000024 0.280000001
v 2.74164844 14.5602264 2.37129951 0.300000012 0.850000024 0.280000001
v 3.06440783 15.0274754 2.18625379 0.300000012 0.850000024 0.280000001
v -2.11891723 12.8252306 2.74858236 0.723887324 0.580253601 0.703887284
v -2.09465647 12.9962969 2.60291576 0.723887324 0.580253601 0.703887284
v -2.02836442 13.1941071 3.01801753 0.723887324 0.580253601 0.703887284
v -2.02694821 13.2626047 2.81382036 0.723887324 0.580253601 0.703887284
v 1.20317495 15.8807039 1.65227294 0.300000012 0.850000024 0.280000001
v 0.57761842 16.1659508 2.14730215 0.300000012 0.850000024 0.280000001
v 2.01386261 15.6200132 1.99956417 0.300000012 0.850000024 0.280000001
v 1.39810407 15.7115173 2.43646884 0.300000012 0.850000024 0.280000001
v 0.330349654 16.2252254 2.59386945 0.733438849 0.574175358 0.713438809
v 0.851172149 16.1266155 2.2434206 0.733438849 0.574175358 0.713438809
v 0.952296913 15.835042 2.58497334 0.733438849 0.574175358 0.713438809
v 0.581057072 15.9900427 2.88699675 0.733438849 0.574175358 0.713438809
v 2.24117184 14.2380447 1.87071896 0.347741514 0.81961906 0.327741504
v 2.20268965 15.6476765 1.8365531 0.347741514 0.81961906 0.327741504
v 2.34050751 14.5236902 2.90294886 0.347741514 0.81961906 0.327741504
v 2.24313498 15.8814507 2.9619894 0.347741514 0.81961906 0.327741504
v 3.00513744 13.3888464 1.3864038 0.300000012 0.850000024 0.280000001
v 3.53456378 13.4836988 0.780353904 0.300000012 0.850000024 0.280000001
v 3.00607371 13.5774212 0.630218863 0.300000012 0.850000024 0.280000001
v 3.30349922 13.6052094 0.101650357 0.300000012 0.850000024 0.280000001
v 3.54218554 13.8443146 0.815841556 0.300000012 0.850000024 0.280000001
v 4.4563632 13.2231989 0.496907145 0.300000012 0.850000024 0.280000001
v 3.92532325 14.4216108 -0.0395491123 0.300000012 0.850000024 0.280000001
v 4.7493906 13.5594587 -0.196290433 0.300000012 0.850000024 0.280000001
v 4.45650911 12.9846926 0.803597569 0.300000012 0.850000024 0.280000001
v 4.64917755 13.2409048 0.360617757 0.300000012 0.850000024 0.280000001
v 4.43085051 12.6689854 0.433849812 0.300000012 0.850000024 0.280000001
v 4.42970228 13.1327763 0.153719395 0.300000012 0.850000024 0.280000001
v 4.29195833 10.9957113 0.431423992 0.300000012 0.850000024 0.280000001
v 4.6866169 12.7741108 0.248612881 0.300000012 0.850000024 0.280000001
v 5.05700684 10.6808662 -0.682400525 0.300000012 0.850000024 0.280000001
v 5.32319355 12.3884344 -0.996081471 0.300000012 0.850000024 0.280000001
v 4.87435293 10.3666534 -0.879995763 0.300000012 0.850000024 0.280000001
v 5.31997299 10.7411566 -0.862172484 0.300000012 0.850000024 0.280000001
v 4.76030397 10.4769201 -1.08516026 0.300000012 0.850000024 0.280000001
v 5.03780985 10.6206856 -1.21656644 0.300000012 0.850000024 0.280000001
v 4.81586695 10.1462593 -2.20251894 0.300000012 0.850000024 0.280000001
v 4.8047533 10.8602829 -1.08591652 0.300000012 0.850000024 0.280000001
v 5.32575226 11.9060555 -2.64994526 0.300000012 0.850000024 0.280000001
v 5.26707649 12.5577965 -1.56328404 0.300000012 0.850000024 0.280000001
v 4.11915159 12.04881 -2.64178944 0.496736467 0.724804103 0.476736456
v 5.0292778 11.9902382 -2.44338989 0.496736467 0.724804103 0.476736456
v 4.34889078 12.8748474 -2.30845523 0.496736467 0.724804103 0.476736456
v 4.85410881 12.2810068 -2.27384257 0.496736467 0.724804103 0.476736456
v 3.97126174 13.5657101 -2.68418312 0.553283811 0.688819408 0.53328383
v 4.02065754 13.0597506 -2.07144451 0.553283811 0.688819408 0.53328383
v 4.19289303 14.6909142 -2.22330236 0.553283811 0.688819408 0.53328383
v 4.28123665 14.1740894 -1.69030607 0.553283811 0.688819408 0.53328383
v 3.59509993 14.6755934 -1.53849959 0.776882768 0.546529174 0.756882787
v 3.31905627 14.8452749 -1.46845019 0.776882768 0.546529174 0.756882787
v 3.25621367 14.7873793 -1.25035703 0.776882768 0.546529174 0.756882787
v 3.53729081 14.6638422 -1.29465985 0.776882768 0.546529174 0.756882787
v 2.6470809 14.6675768 -1.50053942 0.828522444 0.513667583 0.808522463
v 2.69969225 14.6976776 -1.52025938 0.828522444 0.513667583 0.808522463
v 2.63164663 14.6622381 -1.51160729 0.828522444 0.513667583 0.808522463
v 2.72292161 14.7054491 -1.4946692 0.828522444 0.513667583 0.808522463
v -1.30374694 12.9947567 3.69587874 0.849642932 0.500227213 0.829642892
v -1.30372286 12.9930525 3.69697595 0.849642932 0.500227213 0.829642892
v -1.3022778 12.9954681 3.69553018 0.849642932 0.500227213 0.829642892
v -1.30248892 12.9939127 3.69667339 0.849642932 0.500227213 0.829642892
v -1.37771416 11.1269112 3.38969851 0.765143871 0.553999424 0.74514389
v -1.39159679 11.4505739 3.595505 0.765143871 0.553999424 0.74514389
v -1.22954881 11.0573053 3.53048372 0.765143871 0.553999424 0.74514389
v -1.23676968 11.4118986 3.69383478 0.765143871 0.553999424 0.74514389
v -0.940703332 9.7136116 3.24203587 0.765954733 0.553483427 0.745954692
v -0.767596543 9.93449593 3.24174261 0.765954733 0.553483427 0.745954692
v -0.815038264 9.41052055 3.42723179 0.765954733 0.553483427 0.745954692
v -0.630172074 9.61862946 3.42357922 0.765954733 0.553483427 0.745954692
v -0.0271181613 9.17588043 3.60680008 0.829121888 0.513286114 0.809121847
v -0.0408607274 9.19408989 3.56044173 0.829121888 0.513286114 0.809121847
v -0.019434046 9.19643784 3.65998387 0.829121888 0.513286114 0.809121847
v -0.0316399708 9.22275639 3.59612036 0.829121888 0.513286114 0.809121847
v 1.19529486 8.58666325 4.0045619 0.300000012 0.850000024 0.280000001
v -0.124251306 9.10444641 4.2268939 0.300000012 0.850000024 0.280000001
v 1.60428333 10.4757919 4.20590305 0.300000012 0.850000024 0.280000001
v 0.298054934 10.8749971 4.37346458 0.300000012 0.850000024 0.280000001
v 1.37423873 10.7109356 4.49386358 0.300000012 0.850000024 0.280000001
v 1.86578584 10.5502911 4.69281101 0.300000012 0.850000024 0.280000001
v 2.41312456 11.5095501 4.69186306 0.300000012 0.850000024 0.280000001
v 1.8083775 11.4679337 4.28515625 0.300000012 0.850000024 0.280000001
v 2.40802407 10.0520067 4.26710367 0.300000012 0.850000024 0.280000001
v 1.89801669 10.9245453 4.62456131 0.300000012 0.850000024 0.280000001
v 3.424119 10.9989014 3.60881948 0.300000012 0.850000024 0.280000001
v 3.0328722 12.225811 4.07528496 0.300000012 0.850000024 0.280000001
v 3.60133123 11.5356226 2.9396162 0.300000012 0.850000024 0.280000001
v 3.12597013 11.6011581 3.87971902 0.300000012 0.850000024 0.280000001
v 3.4864521 12.9050388 2.72994399 0.300000012 0.850000024 0.280000001
v 3.05607343 12.971611 3.51310492 0.300000012 0.850000024 0.280000001
v 3.3223784 12.4451218 2.13501763 0.300000012 0.850000024 0.280000001
v 3.24533677 13.2209244 2.9678328 0.300000012 0.850000024 0.280000001
v 3.31987715 13.069417 1.46524763 0.300000012 0.850000024 0.280000001
v 3.4538188 13.9049244 2.1260283 0.300000012 0.850000024 0.280000001
v 2.37227702 15.2080107 -0.41142413 0.300000012 0.850000024 0.280000001
v 2.99360538 14.9760942 -1.57425606 0.300000012 0.850000024 0.280000001
v 2.94479585 14.2577553 -0.035140276 0.300000012 0.850000024 0.280000001
v 3.62731743 14.1835222 -1.23608398 0.300000012 0.850000024 0.280000001
v 3.94140506 14.2026253 0.400767326 0.300000012 0.850000024 0.280000001
v 3.05055809 14.1572676 -0.132879525 0.300000012 0.850000024 0.280000001
v 3.17697287 13.9111767 0.235269606 0.300000012 0.850000024 0.280000001
v 3.8222084 14.2777948 0.0113551915 0.300000012 0.850000024 0.280000001
v 3.06260061 14.2787418 1.20570922 0.300000012 0.850000024 0.280000001
v 3.1498754 13.0410509 1.60386884 0.300000012 0.850000024 0.280000001
v 2.88667417 14.6018314 2.2426722 0.300000012 0.850000024 0.280000001
v 2.83397675 13.4681931 2.72718215 0.300000012 0.850000024 0.280000001
v 2.78910112 14.47789 2.320189 0.300000012 0.850000024 0.280000001
v 2.59756565 14.5485201 2.65925455 0.300000012 0.850000024 0.280000001
v 3.23104811 13.7746811 2.31105661 0.300000012 0.850000024 0.280000001
v 3.07359648 13.8289232 2.94601226 0.300000012 0.850000024 0.280000001
v 1.44938338 15.176609 2.58559608 0.314894319 0.840521812 0.294894338
v 1.39634228 15.6441174 2.42785072 0.314894319 0.840521812 0.294894338
v 2.02247882 15.6641054 3.13250065 0.314894319 0.840521812 0.294894338
v 1.85086668 15.9865036 2.93613076 0.314894319 0.840521812 0.294894338
v 1.27049303 15.406352 2.49778795 0.300000012 0.850000024 0.280000001
v 0.816160917 16.2381592 2.70821714 0.300000012 0.850000024 0.280000001
v 1.24353373 15.3557291 3.55944657 0.300000012 0.850000024 0.280000001
v 0.904093325 16.3224888 3.53680277 0.300000012 0.850000024 0.280000001
v 2.93762231 14.7028255 2.24822211 0.300000012 0.850000024 0.280000001
v 2.30038691 15.735095 2.87365723 0.300000012 0.850000024 0.280000001
v 2.86164379 13.6542397 3.13533115 0.300000012 0.850000024 0.280000001
v 2.02858877 14.4803963 3.80677986 0.300000012 0.850000024 0.280000001
v 4.03247261 14.6779032 -0.0839473456 0.300000012 0.850000024 0.280000001
v 4.24465275 13.3649111 0.301197737 0.300000012 0.850000024 0.280000001
v 4.62556696 14.2282152 -1.29062045 0.300000012 0.850000024 0.280000001
v 4.59638739 12.7896099 -0.791939616 0.300000012 0.850000024 0.280000001
v 4.48684502 12.8699675 0.397725135 0.300000012 0.850000024 0.280000001
v 5.03194904 13.7842703 -0.366343886 0.300000012 0.850000024 0.280000001
v 4.5074625 12.0103359 -0.323635727 0.300000012 0.850000024 0.280000001
v 4.92165089 12.8475885 -1.00097322 0.300000012 0.850000024 0.280000001
v 5.04515696 10.8376894 -0.691531658 0.300000012 0.850000024 0.280000001
v 5.34658289 11.0563068 -1.55653608 0.300000012 0.850000024 0.280000001
v 4.84737635 12.1374712 -0.560391903 0.300000012 0.850000024 0.280000001
v 5.12899971 12.4400473 -1.47793686 0.300000012 0.850000024 0.280000001
v 4.45323277 11.5992327 -1.95846796 0.326666594 0.833030343 0.306666613
v 4.94497585 12.5395088 -1.36309111 0.326666594 0.833030343 0.306666613
v 4.82196999 12.2669172 -2.27660465 0.326666594 0.833030343 0.306666613
v 5.12425184 13.2125597 -1.90283251 0.326666594 0.833030343 0.306666613
v 4.61935568 13.2380018 -2.71721125 0.300000012 0.850000024 0.280000001
v 4.61338377 12.2321596 -2.15001392 0.300000012 0.850000024 0.280000001
v 4.47210121 14.3240261 -1.7656275 0.300000012 0.850000024 0.280000001
v 4.36269617 12.886898 -1.26060379 0.300000012 0.850000024 0.280000001
v 3.47574854 14.4366379 -1.72494817 0.300000012 0.850000024 0.280000001
v 4.12677431 14.1530333 -1.5585314 0.300000012 0.850000024 0.280000001
v 3.79223275 14.5774298 -1.29915929 0.300000012 0.850000024 0.280000001
v 4.48007488 14.3901329 -1.17629063 0.300000012 0.850000024 0.280000001
v -1.03150058 13.7307854 3.96304512 0.778202116 0.545689583 0.758202076
v -0.945697427 13.5218229 4.04638672 0.778202116 0.545689583 0.758202076
v -0.801205933 14.0074215 3.93923211 0.778202116 0.545689583 0.758202076
v -0.751211286 13.8231859 4.02666378 0.778202116 0.545689583 0.758202076
v -1.24447083 12.2586994 3.52083397 0.637117743 0.63547051 0.617117763
v -1.00178635 12.4669571 3.74847794 0.637117743 0.63547051 0.617117763
v -1.22977018 11.9284964 4.06460857 0.637117743 0.63547051 0.617117763
v -1.04798079 12.1590862 4.25374413 0.637117743 0.63547051 0.617117763
v -1.65197229 10.2345657 3.70243049 0.383043855 0.79715395 0.363043845
v -0.964847326 11.7514639 3.49347758 0.383043855 0.79715395 0.363043845
v -0.686114848 9.41242218 3.89088631 0.383043855 0.79715395 0.363043845
v -0.0404182076 10.9852791 3.661798 0.383043855 0.79715395 0.363043845
v 0.264053553 9.55627632 3.90310097 0.490217686 0.728952408 0.470217645
v -0.380458444 9.52416706 3.63556266 0.490217686 0.728952408 0.470217645
v 0.179636508 10.7119093 4.47918177 0.490217686 0.728952408 0.470217645
v -0.428472757 10.6469774 4.10168648 0.490217686 0.728952408 0.470217645
v 0.833322942 9.99909306 5.08248663 0.300000012 0.850000024 0.280000001
v 0.0440909863 10.9735661 4.72838783 0.300000012 0.850000024 0.280000001
v 1.77396941 11.1980295 4.32269335 0.300000012 0.850000024 0.280000001
v 0.990442395 11.9756393 4.05513287 0.300000012 0.850000024 0.280000001
v 2.59449816 12.0932293 4.55531597 0.300000012 0.850000024 0.280000001
v 1.48433912 11.6311588 4.68081236 0.300000012 0.850000024 0.280000001
v 1.28042245 12.7057781 4.54465389 0.300000012 0.850000024 0.280000001
v 2.15689707 13.3489094 3.9176147 0.300000012 0.850000024 0.280000001
v 3.00321412 11.2129583 4.03334761 0.300000012 0.850000024 0.280000001
v 2.12810493 12.0713425 5.04252768 0.300000012 0.850000024 0.280000001
v 3.42711258 12.8806095 3.12165618 0.300000012 0.850000024 0.280000001
v 2.28571749 13.6970949 3.82727575 0.300000012 0.850000024 0.280000001
v 3.15005112 13.0858974 3.05705786 0.300000012 0.850000024 0.280000001
v 3.26618695 13.4264565 3.31600761 0.300000012 0.850000024 0.280000001
v 2.88579416 13.2664537 2.6721282 0.300000012 0.850000024 0.280000001
v 3.25051475 13.723011 2.76949215 0.300000012 0.850000024 0.280000001
v 3.62478471 14.8017645 -0.642713547 0.300000012 0.850000024 0.280000001
v 3.83450651 14.5892305 0.0490686893 0.300000012 0.850000024 0.280000001
v 3.72615433 14.3344183 -1.2868979 0.300000012 0.850000024 0.280000001
v 3.79540277 13.8550291 -0.57377249 0.300000012 0.850000024 0.280000001
v 0.383085161 15.6520853 3.33332253 0.541768432 0.696147382 0.521768451
v 0.386855334 15.4017687 3.55055118 0.541768432 0.696147382 0.521768451
v 0.871414363 16.0096264 3.5102644 0.541768432 0.696147382 0.521768451
v 1.11058545 15.8106403 3.66399932 0.541768432 0.696147382 0.521768451
v -0.238855928 15.0025949 3.00033188 0.544412255 0.694464982 0.524412215
v 0.329593569 14.9038143 3.35795069 0.544412255 0.694464982 0.524412215
v -0.776458621 15.0951414 3.93290615 0.544412255 0.694464982 0.524412215
v -0.20958972 14.723032 4.30519724 0.544412255 0.694464982 0.524412215
v 2.09063601 15.5102835 3.02687001 0.300000012 0.850000024 0.280000001
v 1.43062449 15.4352865 3.37727284 0.300000012 0.850000024 0.280000001
v 2.34053731 14.647418 3.41287231 0.300000012 0.850000024 0.280000001
v 1.89585304 14.9102182 3.67837906 0.300000012 0.850000024 0.280000001
v 1.7555306 15.614666 2.93651009 0.300000012 0.850000024 0.280000001
v 0.943890691 16.2005768 3.45813727 0.300000012 0.850000024 0.280000001
v 0.783928692 15.5056467 4.18312263 0.300000012 0.850000024 0.280000001
v 1.7365638 14.7134953 3.81181216 0.300000012 0.850000024 0.280000001
v 2.63908243 12.7935095 3.93548346 0.300000012 0.850000024 0.280000001
v 3.10764694 13.5227108 2.88393402 0.300000012 0.850000024 0.280000001
v 2.67698765 14.6905842 3.08463788 0.300000012 0.850000024 0.280000001
v 1.9467454 13.8346062 4.22252035 0.300000012 0.850000024 0.280000001
v 4.32773161 14.2196236 -1.68452692 0.300000012 0.850000024 0.280000001
v 4.11414909 14.1114244 -0.773541689 0.300000012 0.850000024 0.280000001
v 4.76930428 12.9808941 -0.899911106 0.300000012 0.850000024 0.280000001
v 4.80979347 13.0749559 -1.71783102 0.300000012 0.850000024 0.280000001
v 5.16272783 12.5370626 -0.896666348 0.300000012 0.850000024 0.280000001
v 4.87725735 12.4530907 -1.32060194 0.300000012 0.850000024 0.280000001
v 4.97651386 13.0087957 -1.03347099 0.300000012 0.850000024 0.280000001
v 4.45672178 12.786397 -1.32623589 0.300000012 0.850000024 0.280000001
v -0.850455582 14.7795486 3.82269382 0.425803661 0.769943118 0.40580368
v -1.11077821 13.716258 4.62985516 0.425803661 0.769943118 0.40580368
v 0.303140551 14.8109932 3.72842813 0.425803661 0.769943118 0.40580368
v 0.0541613251 13.6718082 4.41469145 0.425803661 0.769943118 0.40580368
v -0.85615772 12.8693924 4.13256025 0.723121166 0.580741167 0.703121126
v -0.801799357 13.2312002 4.4023304 0.723121166 0.580741167 0.703121126
v -0.667589366 12.8260918 4.239182 0.723121166 0.580741167 0.703121126
v -0.735469222 13.1672249 4.47960663 0.723121166 0.580741167 0.703121126
v -1.29764068 11.763011 3.94082761 0.307879895 0.844985545 0.287879884
v -0.483110368 12.5250721 3.72203708 0.307879895 0.844985545 0.287879884
v -0.748995423 10.659133 4.44411039 0.307879895 0.844985545 0.287879884
v 0.0224794149 11.6006861 4.13648224 0.307879895 0.844985545 0.287879884
v -0.0358926356 10.8331785 4.83555984 0.300000012 0.850000024 0.280000001
v -0.191533983 11.1015224 3.87531519 0.300000012 0.850000024 0.280000001
v 0.392318636 11.433732 4.69282961 0.300000012 0.850000024 0.280000001
v 0.118327811 11.582098 4.0167222 0.300000012 0.850000024 0.280000001
v 1.49980903 11.3793316 4.65583658 0.300000012 0.850000024 0.280000001
v 0.207770646 11.6453857 4.96435976 0.300000012 0.850000024 0.280000001
v 1.69911337 12.9845581 4.06519938 0.300000012 0.850000024 0.280000001
v 0.578707337 13.2294207 4.59608984 0.300000012 0.850000024 0.280000001
v 1.4997232 13.2919617 4.34132242 0.300000012 0.850000024 0.280000001
v 1.92503035 13.4215822 4.18405867 0.300000012 0.850000024 0.280000001
v 1.43374825 13.6507463 4.24296618 0.300000012 0.850000024 0.280000001
v 1.44422054 13.3246431 4.13530922 0.300000012 0.850000024 0.280000001
v 0.402641416 15.1118431 3.33284903 0.315650523 0.840040624 0.295650512
v 0.798409581 15.1514864 4.06057358 0.315650523 0.840040624 0.295650512
v 0.215555161 15.0920973 3.90965438 0.315650523 0.840040624 0.295650512
v 0.613952935 14.9862862 4.594347 0.315650523 0.840040624 0.295650512
v 2.04179287 14.0222015 3.71159315 0.300000012 0.850000024 0.280000001
v 1.78902376 13.6808586 4.38113642 0.300000012 0.850000024 0.280000001
v 2.07708812 14.6848497 3.43449545 0.300000012 0.850000024 0.280000001
v 1.74744487 14.4045019 3.95281911 0.300000012 0.850000024 0.280000001
v 1.36703396 15.7245159 3.43429947 0.300000012 0.850000024 0.280000001
v 1.86822939 14.4926462 3.61920238 0.300000012 0.850000024 0.280000001
v 1.09399664 13.7688637 4.68273258 0.300000012 0.850000024 0.280000001
v 0.720588982 15.1858044 4.51877594 0.300000012 0.850000024 0.280000001
v -0.12646687 14.4881315 4.23033094 0.300000012 0.850000024 0.280000001
v 0.0373550057 13.7663536 4.48755503 0.300000012 0.850000024 0.280000001
v 0.756971776 14.8152962 4.36522245 0.300000012 0.850000024 0.280000001
v 0.762733936 13.982666 4.33025789 0.300000012 0.850000024 0.280000001
v -0.517664135 13.9343224 3.90226912 0.300000012 0.850000024 0.280000001
v 0.190203592 13.5393896 4.23906565 0.300000012 0.850000024 0.280000001
v -0.882871926 13.4127941 4.64637184 0.300000012 0.850000024 0.280000001
v -0.407435149 12.6812296 4.9382019 0.300000012 0.850000024 0.280000001
v -1.15845108 12.1604528 4.47123289 0.311116129 0.842926145 0.291116118
v -0.727660179 13.3908691 4.41563606 0.311116129 0.842926145 0.291116118
v -0.153174162 11.5810022 4.37961149 0.311116129 0.842926145 0.291116118
v 0.219981521 13.0948334 4.21585894 0.311116129 0.842926145 0.291116118
v 0.658545077 12.023591 4.47151279 0.300000012 0.850000024 0.280000001
v -0.0714035332 11.6673117 4.27565098 0.300000012 0.850000024 0.280000001
v 0.483393669 13.0997686 4.69633627 0.300000012 0.850000024 0.280000001
v -0.244720966 12.7038918 4.7127943 0.300000012 0.850000024 0.280000001
v 1.05462277 12.559824 4.810956 0.300000012 0.850000024 0.280000001
v 0.393381894 13.3554106 4.86092281 0.300000012 0.850000024 0.280000001
v 1.44136453 13.0986328 4.10836744 0.300000012 0.850000024 0.280000001
v 1.0105468 13.9992933 4.03058624 0.300000012 0.850000024 0.280000001
v 1.71890533 14.1130056 3.92487907 0.300000012 0.850000024 0.280000001
v 1.33007205 13.2446899 4.25867558 0.300000012 0.850000024 0.280000001
v 0.808694243 14.9501657 4.34396935 0.300000012 0.850000024 0.280000001
v 0.422020257 13.5963125 4.72430277 0.300000012 0.850000024 0.280000001
v 0.227853268 13.5831766 4.20498419 0.300000012 0.850000024 0.280000001
v 0.326967716 13.2000275 4.92446613 0.300000012 0.850000024 0.280000001
v 0.487174004 13.3416061 4.59188461 0.300000012 0.850000024 0.280000001
v 0.0677259862 13.2454023 4.44833851 0.300000012 0.850000024 0.280000001
vn -0.806219816 -0.450208068 0.38382563
vn -0.689616442 -0.605081618 0.397875398
vn -0.405781299 -0.606568873 0.683677971
vn -0.314014852 -0.759385407 0.569849491
vn -0.806219816 -0.450208068 0.38382563
vn -0.790023029 -0.277904421 0.546473265
vn -0.405781299 -0.606568873 0.683677971
vn -0.518916368 -0.276186794 0.808978736
vn -0.405781299 -0.606568873 0.683677971
vn -0.314014852 -0.759385407 0.569849491
vn 0.133704409 -0.642520607 0.754513085
vn 0.117619894 -0.734955311 0.667837024
vn -0.689616442 -0.605081618 0.397875398
vn -0.314014852 -0.759385407 0.569849491
vn -0.772018611 -0.616555095 0.15442276
vn -0.411247343 -0.794890344 0.44612205
vn -0.790023029 -0.277904421 0.546473265
vn -0.518916368 -0.276186794 0.808978736
vn -0.713142872 -0.0484405085 0.699343026
vn -0.570016086 -0.110413603 0.814180851
vn -0.405781299 -0.606568873 0.683677971
vn -0.518916368 -0.276186794 0.808978736
vn 0.133704409 -0.642520607 0.754513085
vn -0.0490442812 -0.330308467 0.942597985
vn -0.967363596 0.16742596 0.190199271
vn -0.713142872 -0.0484405085 0.699343026
vn -0.570016086 -0.110413603 0.814180851
vn -0.673347831 0.059901379 0.736895204
vn 0.133704409 -0.642520607 0.754513085
vn 0.117619894 -0.734955311 0.667837024
vn 0.304659605 -0.548992157 0.77832514
vn 0.487337142 -0.674839795 0.554160357
vn -0.314014852 -0.759385407 0.569849491
vn 0.117619894 -0.734955311 0.667837024
vn -0.411247343 -0.794890344 0.44612205
vn 0.272187173 -0.798073173 0.537580788
vn -0.518916368 -0.276186794 0.808978736
vn -0.570016086 -0.110413603 0.814180851
vn -0.0490442812 -0.330308467 0.942597985
vn -0.389598548 -0.0501806103 0.919616699
vn -0.570016086 -0.110413603 0.814180851
vn -0.673347831 0.059901379 0.736895204
vn -0.389598548 -0.0501806103 0.919616699
vn -0.417925209 0.171937406 0.892062783
vn 0.304659605 -0.548992157 0.77832514
vn 0.487337142 -0.674839795 0.554160357
vn -0.294129491 -0.743237019 0.600905061
vn 0.541684151 -0.818037152 0.193373725
vn 0.117619894 -0.734955311 0.667837024
vn 0.487337142 -0.674839795 0.554160357
vn 0.272187173 -0.798073173 0.537580788
vn 0.763829947 -0.576498389 0.290195256
vn -0.411247343 -0.794890344 0.44612205
vn 0.272187173 -0.798073173 0.537580788
vn -0.427003443 -0.885834396 -0.181562752
vn 0.319994062 -0.942523897 -0.0961874947
vn -0.673347831 0.059901379 0.736895204
vn -0.976665556 0.10248068 0.188737065
vn -0.417925209 0.171937406 0.892062783
vn -0.550210297 0.446476012 0.705639601
vn -0.389598548 -0.0501806103 0.919616699
vn -0.417925209 0.171937406 0.892062783
vn -0.365629137 -0.18659541 0.911864519
vn -0.258115649 0.333351284 0.906781793
vn -0.294129491 -0.743237019 0.600905061
vn 0.541684151 -0.818037152 0.193373725
vn -0.747191668 -0.650706172 -0.135225743
vn -0.254164875 -0.680693984 -0.687063217
vn 0.487337142 -0.674839795 0.554160357
vn 0.541684151 -0.818037152 0.193373725
vn 0.763829947 -0.576498389 0.290195256
vn 0.900986791 -0.406318456 -0.152077556
vn 0.272187173 -0.798073173 0.537580788
vn 0.763829947 -0.576498389 0.290195256
vn 0.319994062 -0.942523897 -0.0961874947
vn 0.761407912 -0.648085356 0.0155967521
vn 0.216463536 -0.388973087 0.895457149
vn -0.365629137 -0.18659541 0.911864519
vn -0.578894138 -0.723407626 0.376248628
vn -0.492394 -0.788382769 -0.36878261
vn -0.294129491 -0.743237019 0.600905061
vn -0.578894138 -0.723407626 0.376248628
vn -0.690685093 -0.671828389 0.267583013
vn -0.776266515 -0.629031897 0.0415803716
vn -0.417925209 0.171937406 0.892062783
vn -0.550210297 0.446476012 0.705639601
vn -0.258115649 0.333351284 0.906781793
vn -0.28850314 0.565156579 0.77289331
vn 0.541684151 -0.818037152 0.193373725
vn -0.254164875 -0.680693984 -0.687063217
vn 0.900986791 -0.406318456 -0.152077556
vn 0.593129098 -0.351736188 -0.724209607
vn 0.763829947 -0.576498389 0.290195256
vn 0.900986791 -0.406318456 -0.152077556
vn 0.761407912 -0.648085356 0.0155967521
vn 0.782139063 -0.469433188 -0.409745067
vn 0.319994062 -0.942523897 -0.0961874947
vn 0.761407912 -0.648085356 0.0155967521
vn 0.36326918 -0.717193365 -0.594700694
vn 0.782139063 -0.469433188 -0.409745067
vn 0.36326918 -0.717193365 -0.594700694
vn 0.327781081 -0.410745859 -0.850792229
vn 0.782139063 -0.469433188 -0.409745067
vn 0.632828474 -0.260625064 -0.729110897
vn -0.690685093 -0.671828389 0.267583013
vn -0.776266515 -0.629031897 0.0415803716
vn -0.233725891 -0.696070611 0.678865194
vn -0.242691845 -0.729289055 0.639717162
vn -0.550210297 0.446476012 0.705639601
vn -0.635923624 0.757324159 0.148528814
vn -0.28850314 0.565156579 0.77289331
vn -0.379480183 0.859225094 0.343113452
vn -0.258115649 0.333351284 0.906781793
vn -0.28850314 0.565156579 0.77289331
vn 0.0797315165 0.58141619 0.809690356
vn -0.154715836 0.701172888 0.696002305
vn -0.258115649 0.333351284 0.906781793
vn -0.983183444 -0.0465853773 -0.176577762
vn -0.154715836 0.701172888 0.696002305
vn -0.602294087 0.481467456 -0.636734486
vn 0.900986791 -0.406318456 -0.152077556
vn 0.593129098 -0.351736188 -0.724209607
vn 0.944185436 -0.159608439 -0.288165331
vn 0.869467974 -0.16039148 -0.467225999
vn 0.900986791 -0.406318456 -0.152077556
vn 0.782139063 -0.469433188 -0.409745067
vn 0.632828474 -0.260625064 -0.729110897
vn 0.75976932 -0.304185331 -0.574649215
vn 0.326314837 -0.0276649762 -0.944856167
vn 0.632828474 -0.260625064 -0.729110897
vn 0.417354137 0.0191521719 -0.908542037
vn 0.75976932 -0.304185331 -0.574649215
vn -0.776266515 -0.629031897 0.0415803716
vn -0.315382779 -0.8565346 -0.408512294
vn -0.233725891 -0.696070611 0.678865194
vn 0.0850582346 -0.97856307 -0.187561452
vn -0.233725891 -0.696070611 0.678865194
vn -0.242691845 -0.729289055 0.639717162
vn 0.287963629 -0.573915422 0.766614735
vn 0.205168098 -0.559192479 0.803249478
vn 0.457681715 0.78546226 -0.416624665
vn 0.0957167149 0.968471169 -0.230004549
vn 0.726395607 0.654169381 0.210740358
vn 0.316349 0.877174556 0.361231387
vn -0.28850314 0.565156579 0.77289331
vn -0.379480183 0.859225094 0.343113452
vn 0.0797315165 0.58141619 0.809690356
vn -0.126815945 0.889438927 0.439108253
vn 0.0957167149 0.968471169 -0.230004549
vn -0.275697559 0.961222291 -0.00655182498
vn 0.316349 0.877174556 0.361231387
vn -0.126815945 0.889438927 0.439108253
vn 0.0797315165 0.58141619 0.809690356
vn -0.154715836 0.701172888 0.696002305
vn 0.572529554 0.662938476 0.482413292
vn -0.811590254 0.581495404 -0.0564292781
vn -0.242691845 -0.729289055 0.639717162
vn -0.210771263 -0.710652649 0.671228886
vn 0.287963629 -0.573915422 0.766614735
vn 0.284547627 -0.570123553 0.770708501
vn -0.714333057 -0.635974407 0.292001039
vn -0.210771263 -0.710652649 0.671228886
vn -0.467455864 -0.879718184 0.0870681405
vn -0.331380188 -0.83796525 0.433591396
vn -0.515726864 -0.80217123 -0.300910652
vn 0.0544168651 -0.854461908 -0.516656101
vn 0.360683203 -0.89788264 -0.252416223
vn 0.674181104 -0.722327232 -0.154022932
vn 0.900986791 -0.406318456 -0.152077556
vn 0.944185436 -0.159608439 -0.288165331
vn 0.75976932 -0.304185331 -0.574649215
vn 0.840083599 -0.0993222743 -0.533286572
vn 0.944185436 -0.159608439 -0.288165331
vn 0.869467974 -0.16039148 -0.467225999
vn 0.929727256 0.0432550348 -0.365699977
vn 0.854675829 0.0428996012 -0.517386436
vn 0.417354137 0.0191521719 -0.908542037
vn 0.75976932 -0.304185331 -0.574649215
vn 0.645589232 0.119062625 -0.754346132
vn 0.840083599 -0.0993222743 -0.533286572
vn -0.233725891 -0.696070611 0.678865194
vn 0.0850582346 -0.97856307 -0.187561452
vn 0.205168098 -0.559192479 0.803249478
vn 0.459474593 -0.846436262 0.269126117
vn 0.287963629 -0.573915422 0.766614735
vn 0.205168098 -0.559192479 0.803249478
vn 0.459474593 -0.846436262 0.269126117
vn 0.804524124 -0.407974333 0.431622267
vn 0.291820496 0.239615217 -0.925972641
vn 0.645589232 0.119062625 -0.754346132
vn 0.67089349 0.34899649 -0.6542961
vn 0.854675829 0.0428996012 -0.517386436
vn 0.457681715 0.78546226 -0.416624665
vn 0.67089349 0.34899649 -0.6542961
vn 0.726395607 0.654169381 0.210740358
vn 0.924037933 0.341832608 -0.171185076
vn 0.726395607 0.654169381 0.210740358
vn 0.316349 0.877174556 0.361231387
vn 0.572529554 0.662938476 0.482413292
vn -0.116609529 0.988411129 0.0971881896
vn 0.0797315165 0.58141619 0.809690356
vn 0.316349 0.877174556 0.361231387
vn -0.126815945 0.889438927 0.439108253
vn 0.572529554 0.662938476 0.482413292
vn 0.572529554 0.662938476 0.482413292
vn -0.811590254 0.581495404 -0.0564292781
vn -0.116609529 0.988411129 0.0971881896
vn -0.435671985 0.522771001 -0.732734799
vn 0.287963629 -0.573915422 0.766614735
vn 0.284547627 -0.570123553 0.770708501
vn 0.804524124 -0.407974333 0.431622267
vn 0.431125492 -0.470853359 0.769693136
vn -0.210771263 -0.710652649 0.671228886
vn 0.284547627 -0.570123553 0.770708501
vn -0.331380188 -0.83796525 0.433591396
vn 0.458070487 -0.71085006 0.533725679
vn -0.467455864 -0.879718184 0.0870681405
vn -0.331380188 -0.83796525 0.433591396
vn 0.0268874764 -0.999631703 -0.00370740076
vn 0.458070487 -0.71085006 0.533725679
vn 0.360683203 -0.89788264 -0.252416223
vn 0.0268874764 -0.999631703 -0.00370740076
vn 0.458070487 -0.71085006 0.533725679
vn 0.769526124 -0.636694789 0.0494880602
vn 0.360683203 -0.89788264 -0.252416223
vn 0.674181104 -0.722327232 -0.154022932
vn 0.769526124 -0.636694789 0.0494880602
vn 0.701687574 -0.703880191 -0.110395201
vn 0.0544168651 -0.854461908 -0.516656101
vn 0.674181104 -0.722327232 -0.154022932
vn 0.455813766 -0.497170955 -0.738278151
vn 0.804968596 -0.462287724 -0.371908426
vn 0.455813766 -0.497170955 -0.738278151
vn 0.413697839 -0.0880149379 -0.906149805
vn 0.804968596 -0.462287724 -0.371908426
vn 0.724996328 -0.187960029 -0.662609518
vn 0.944185436 -0.159608439 -0.288165331
vn 0.645589232 0.119062625 -0.754346132
vn 0.840083599 -0.0993222743 -0.533286572
vn 0.854675829 0.0428996012 -0.517386436
vn 0.67089349 0.34899649 -0.6542961
vn 0.929727256 0.0432550348 -0.365699977
vn 0.854675829 0.0428996012 -0.517386436
vn 0.924037933 0.341832608 -0.171185076
vn 0.0850582346 -0.97856307 -0.187561452
vn 0.459474593 -0.846436262 0.269126117
vn 0.333586961 -0.762914121 -0.553788364
vn 0.539213896 -0.662006676 -0.520572186
vn 0.459474593 -0.846436262 0.269126117
vn 0.804524124 -0.407974333 0.431622267
vn 0.539213896 -0.662006676 -0.520572186
vn 0.800715387 -0.553077459 -0.230130672
vn 0.726395607 0.654169381 0.210740358
vn 0.924037933 0.341832608 -0.171185076
vn -0.116609529 0.988411129 0.0971881896
vn -0.709058225 0.704002798 -0.0402043313
vn 0.804524124 -0.407974333 0.431622267
vn 0.431125492 -0.470853359 0.769693136
vn 0.937663019 -0.092630513 0.334973425
vn 0.415526032 -0.234358206 0.878870785
vn 0.284547627 -0.570123553 0.770708501
vn 0.431125492 -0.470853359 0.769693136
vn 0.574762225 -0.53114152 0.622524917
vn 0.584195971 -0.648439586 0.488099456
vn 0.284547627 -0.570123553 0.770708501
vn 0.458070487 -0.71085006 0.533725679
vn 0.769526124 -0.636694789 0.0494880602
vn 0.584195971 -0.648439586 0.488099456
vn 0.769526124 -0.636694789 0.0494880602
vn 0.701687574 -0.703880191 -0.110395201
vn 0.584195971 -0.648439586 0.488099456
vn 0.506263435 -0.825421453 0.249752373
vn 0.674181104 -0.722327232 -0.154022932
vn 0.701687574 -0.703880191 -0.110395201
vn 0.804968596 -0.462287724 -0.371908426
vn 0.674878955 -0.580384552 -0.455732584
vn 0.804968596 -0.462287724 -0.371908426
vn 0.724996328 -0.187960029 -0.662609518
vn 0.674878955 -0.580384552 -0.455732584
vn 0.556157053 -0.376544505 -0.740880311
vn 0.929727256 0.0432550348 -0.365699977
vn 0.924037933 0.341832608 -0.171185076
vn 0.312816143 0.416632593 -0.853559196
vn -0.709058225 0.704002798 -0.0402043313
vn 0.333586961 -0.762914121 -0.553788364
vn 0.16992265 -0.874352336 -0.454570621
vn 0.0767131373 -0.984848738 0.15552482
vn 0.467445999 -0.881666899 -0.0644789487
vn 0.333586961 -0.762914121 -0.553788364
vn 0.539213896 -0.662006676 -0.520572186
vn 0.467445999 -0.881666899 -0.0644789487
vn 0.756676435 -0.645652294 -0.102827847
vn 0.804524124 -0.407974333 0.431622267
vn 0.800715387 -0.553077459 -0.230130672
vn 0.937663019 -0.092630513 0.334973425
vn 0.968966544 -0.143715739 -0.201120153
vn 0.539213896 -0.662006676 -0.520572186
vn 0.800715387 -0.553077459 -0.230130672
vn 0.756676435 -0.645652294 -0.102827847
vn 0.897769451 -0.402379155 0.179167882
vn -0.116609529 0.988411129 0.0971881896
vn -0.709058225 0.704002798 -0.0402043313
vn -0.863986135 0.462175459 0.199804768
vn -0.873675525 0.293264449 -0.38818413
vn -0.116609529 0.988411129 0.0971881896
vn -0.719795048 0.682219923 0.128339455
vn -0.805879593 0.591048598 0.0349224247
vn -0.791951776 0.275773287 0.544757724
vn -0.719795048 0.682219923 0.128339455
vn 0.384724379 0.561741352 -0.732416093
vn 0.344759852 0.93233794 -0.109025784
vn 0.599649012 0.520221889 -0.608103752
vn 0.937663019 -0.092630513 0.334973425
vn 0.415526032 -0.234358206 0.878870785
vn 0.593769848 0.467639953 0.654790282
vn 0.536324918 0.0181193836 0.843817055
vn 0.431125492 -0.470853359 0.769693136
vn 0.415526032 -0.234358206 0.878870785
vn 0.574762225 -0.53114152 0.622524917
vn 0.749918997 -0.247789741 0.613369226
vn 0.574762225 -0.53114152 0.622524917
vn 0.584195971 -0.648439586 0.488099456
vn 0.506263435 -0.825421453 0.249752373
vn 0.67066437 -0.511299729 0.537384272
vn 0.701687574 -0.703880191 -0.110395201
vn 0.506263435 -0.825421453 0.249752373
vn 0.674878955 -0.580384552 -0.455732584
vn 0.637726426 -0.741899967 -0.207098216
vn 0.724996328 -0.187960029 -0.662609518
vn 0.556157053 -0.376544505 -0.740880311
vn 0.34649542 -0.070147492 -0.935425103
vn 0.631663322 -0.108419061 -0.767623842
vn 0.16992265 -0.874352336 -0.454570621
vn -0.0639530122 -0.994690478 -0.0806270093
vn 0.0767131373 -0.984848738 0.15552482
vn -0.279485643 -0.861184716 0.424556643
vn 0.0767131373 -0.984848738 0.15552482
vn 0.467445999 -0.881666899 -0.0644789487
vn 0.425896406 -0.645169199 0.634325624
vn 0.0190491434 -0.63454318 0.772652626
vn 0.467445999 -0.881666899 -0.0644789487
vn 0.756676435 -0.645652294 -0.102827847
vn 0.425896406 -0.645169199 0.634325624
vn 0.767397106 -0.524699271 0.368500024
vn 0.800715387 -0.553077459 -0.230130672
vn 0.968966544 -0.143715739 -0.201120153
vn 0.897769451 -0.402379155 0.179167882
vn 0.933006823 -0.0746417567 0.352032423
vn 0.937663019 -0.092630513 0.334973425
vn 0.968966544 -0.143715739 -0.201120153
vn 0.593769848 0.467639953 0.654790282
vn 0.93994987 0.338477492 -0.0439005308
vn 0.756676435 -0.645652294 -0.102827847
vn 0.897769451 -0.402379155 0.179167882
vn 0.767397106 -0.524699271 0.368500024
vn 0.79739821 -0.256772429 0.54609853
vn -0.719795048 0.682219923 0.128339455
vn -0.791951776 0.275773287 0.544757724
vn 0.344759852 0.93233794 -0.109025784
vn -0.253199577 0.726760209 0.638521373
vn 0.344759852 0.93233794 -0.109025784
vn 0.599649012 0.520221889 -0.608103752
vn 0.731892943 0.476931304 -0.486691982
vn 0.652957916 0.655917227 -0.378706664
vn 0.260033906 0.512886107 -0.818126142
vn 0.0481478423 0.68976301 -0.722432196
vn 0.558455825 0.661064923 -0.501118481
vn 0.233379677 0.972040892 -0.0258933138
vn 0.599649012 0.520221889 -0.608103752
vn 0.558455825 0.661064923 -0.501118481
vn 0.652957916 0.655917227 -0.378706664
vn 0.643095136 0.734748721 -0.215807438
vn 0.593769848 0.467639953 0.654790282
vn 0.536324918 0.0181193836 0.843817055
vn 0.146029547 0.646726191 0.748612583
vn 0.637498736 0.412790656 0.65053767
vn 0.415526032 -0.234358206 0.878870785
vn 0.536324918 0.0181193836 0.843817055
vn 0.749918997 -0.247789741 0.613369226
vn 0.903448224 0.0453634113 0.426290303
vn 0.574762225 -0.53114152 0.622524917
vn 0.749918997 -0.247789741 0.613369226
vn 0.67066437 -0.511299729 0.537384272
vn 0.900180399 -0.097279489 0.424513519
vn 0.506263435 -0.825421453 0.249752373
vn 0.67066437 -0.511299729 0.537384272
vn 0.637726426 -0.741899967 -0.207098216
vn 0.896079004 -0.430086851 0.109852858
vn 0.637726426 -0.741899967 -0.207098216
vn 0.744042397 -0.255017817 -0.617549062
vn 0.896079004 -0.430086851 0.109852858
vn 0.995506108 -0.0822356865 0.0469562598
vn 0.556157053 -0.376544505 -0.740880311
vn 0.744042397 -0.255017817 -0.617549062
vn 0.631663322 -0.108419061 -0.767623842
vn 0.843256712 0.161951452 -0.51253283
vn 0.424698174 0.144285589 -0.893763304
vn 0.631663322 -0.108419061 -0.767623842
vn 0.60513097 0.442025661 -0.662139952
vn 0.779688418 0.283753335 -0.558184206
vn -0.864817619 -0.117632277 0.488111913
vn -0.77842772 -0.253850341 0.574116945
vn -0.746009588 0.174185261 0.642751217
vn -0.757120132 -0.0808162466 0.648257494
vn -0.609208405 -0.792768717 -0.0195673462
vn -0.7514503 -0.511337698 0.416960686
vn -0.329967707 -0.906215429 0.264375925
vn -0.540344 -0.631955922 0.555572033
vn -0.0639530122 -0.994690478 -0.0806270093
vn -0.329967707 -0.906215429 0.264375925
vn -0.279485643 -0.861184716 0.424556643
vn -0.540344 -0.631955922 0.555572033
vn 0.0767131373 -0.984848738 0.15552482
vn -0.279485643 -0.861184716 0.424556643
vn 0.0190491434 -0.63454318 0.772652626
vn -0.386087984 -0.520367563 0.761678278
vn 0.425896406 -0.645169199 0.634325624
vn 0.0190491434 -0.63454318 0.772652626
vn 0.0892280638 -0.242710605 0.96598655
vn 0.464276105 -0.310250789 0.829573452
vn 0.425896406 -0.645169199 0.634325624
vn 0.767397106 -0.524699271 0.368500024
vn 0.79739821 -0.256772429 0.54609853
vn 0.464276105 -0.310250789 0.829573452
vn 0.897769451 -0.402379155 0.179167882
vn 0.933006823 -0.0746417567 0.352032423
vn 0.79739821 -0.256772429 0.54609853
vn 0.835719109 0.0123238387 0.549018383
vn 0.968966544 -0.143715739 -0.201120153
vn 0.933006823 -0.0746417567 0.352032423
vn 0.93994987 0.338477492 -0.0439005308
vn 0.908034146 0.278995246 0.3124668
vn 0.593769848 0.467639953 0.654790282
vn 0.93994987 0.338477492 -0.0439005308
vn 0.358317167 0.848790646 0.388796926
vn 0.844425797 0.472705662 -0.251980692
vn -0.805879593 0.591048598 0.0349224247
vn -0.499092966 0.862659097 0.0820095092
vn -0.224330664 0.92675668 0.30132696
vn -0.143703803 0.988127828 0.0543365777
vn -0.224330664 0.92675668 0.30132696
vn -0.253199577 0.726760209 0.638521373
vn 0.133092523 0.848613858 0.511996925
vn -0.0683576241 0.710180283 0.700693369
vn 0.344759852 0.93233794 -0.109025784
vn -0.253199577 0.726760209 0.638521373
vn 0.358317167 0.848790646 0.388796926
vn -0.0683576241 0.710180283 0.700693369
vn 0.344759852 0.93233794 -0.109025784
vn 0.731892943 0.476931304 -0.486691982
vn 0.358317167 0.848790646 0.388796926
vn 0.844425797 0.472705662 -0.251980692
vn 0.731892943 0.476931304 -0.486691982
vn 0.652957916 0.655917227 -0.378706664
vn 0.932135761 0.335704446 -0.135740429
vn 0.837428749 0.545189798 -0.0384796448
vn -0.864817619 -0.117632277 0.488111913
vn -0.866389871 0.222901747 0.446859479
vn -0.746009588 0.174185261 0.642751217
vn -0.673399985 0.48281467 0.559841335
vn 0.558455825 0.661064923 -0.501118481
vn 0.233379677 0.972040892 -0.0258933138
vn 0.643095136 0.734748721 -0.215807438
vn 0.454350263 0.865585029 0.210543334
vn -0.580670953 0.790138602 0.196219578
vn 0.233379677 0.972040892 -0.0258933138
vn 0.454350263 0.865585029 0.210543334
vn -0.143506631 0.943945587 0.297275007
vn 0.652957916 0.655917227 -0.378706664
vn 0.643095136 0.734748721 -0.215807438
vn 0.837428749 0.545189798 -0.0384796448
vn 0.696973741 0.638578475 0.326258719
vn 0.593769848 0.467639953 0.654790282
vn 0.146029547 0.646726191 0.748612583
vn 0.358317167 0.848790646 0.388796926
vn -0.0683576241 0.710180283 0.700693369
vn 0.146029547 0.646726191 0.748612583
vn 0.637498736 0.412790656 0.65053767
vn 0.482010305 0.805590212 0.344514579
vn 0.879411459 0.410929322 0.240358755
vn 0.536324918 0.0181193836 0.843817055
vn 0.637498736 0.412790656 0.65053767
vn 0.903448224 0.0453634113 0.426290303
vn 0.879411459 0.410929322 0.240358755
vn 0.749918997 -0.247789741 0.613369226
vn 0.903448224 0.0453634113 0.426290303
vn 0.900180399 -0.097279489 0.424513519
vn 0.955249846 0.148006812 0.256108671
vn 0.67066437 -0.511299729 0.537384272
vn 0.900180399 -0.097279489 0.424513519
vn 0.896079004 -0.430086851 0.109852858
vn 0.995506108 -0.0822356865 0.0469562598
vn 0.744042397 -0.255017817 -0.617549062
vn 0.995506108 -0.0822356865 0.0469562598
vn 0.843256712 0.161951452 -0.51253283
vn 0.965316713 0.249269068 -0.0776419044
vn 0.631663322 -0.108419061 -0.767623842
vn 0.843256712 0.161951452 -0.51253283
vn 0.779688418 0.283753335 -0.558184206
vn 0.909909189 0.327821553 -0.254161417
vn 0.60513097 0.442025661 -0.662139952
vn 0.779688418 0.283753335 -0.558184206
vn 0.541511953 0.759494603 -0.360461533
vn 0.875867009 0.437899113 -0.20273371
vn 0.541511953 0.759494603 -0.360461533
vn 0.0219233483 0.966217279 -0.256795228
vn -0.143703803 0.988127828 0.0543365777
vn 0.321612328 0.90602833 0.27509585
vn -0.499092966 0.862659097 0.0820095092
vn 0.0219233483 0.966217279 -0.256795228
vn -0.228670061 0.956085324 -0.183332503
vn -0.143703803 0.988127828 0.0543365777
vn -0.746009588 0.174185261 0.642751217
vn -0.757120132 -0.0808162466 0.648257494
vn -0.781259656 0.375530511 0.498608202
vn -0.753614068 0.0571876541 0.654824793
vn -0.77842772 -0.253850341 0.574116945
vn -0.757120132 -0.0808162466 0.648257494
vn -0.679736733 -0.318042308 0.660913825
vn -0.55705899 -0.191432133 0.808108032
vn -0.7514503 -0.511337698 0.416960686
vn -0.679736733 -0.318042308 0.660913825
vn -0.540344 -0.631955922 0.555572033
vn -0.524856091 -0.350934297 0.775480926
vn -0.279485643 -0.861184716 0.424556643
vn -0.540344 -0.631955922 0.555572033
vn -0.386087984 -0.520367563 0.761678278
vn -0.524856091 -0.350934297 0.775480926
vn 0.0190491434 -0.63454318 0.772652626
vn -0.386087984 -0.520367563 0.761678278
vn 0.0892280638 -0.242710605 0.96598655
vn -0.325167567 -0.201409519 0.923958719
vn 0.0892280638 -0.242710605 0.96598655
vn 0.464276105 -0.310250789 0.829573452
vn 0.45934701 0.118720375 0.88028729
vn 0.00994881801 0.0529375263 0.99854821
vn 0.79739821 -0.256772429 0.54609853
vn 0.464276105 -0.310250789 0.829573452
vn 0.835719109 0.0123238387 0.549018383
vn 0.45934701 0.118720375 0.88028729
vn 0.933006823 -0.0746417567 0.352032423
vn 0.835719109 0.0123238387 0.549018383
vn 0.908034146 0.278995246 0.3124668
vn 0.71686554 0.2714203 0.642211139
vn 0.93994987 0.338477492 -0.0439005308
vn 0.908034146 0.278995246 0.3124668
vn 0.844425797 0.472705662 -0.251980692
vn 0.942139864 0.334894389 0.0147644188
vn -0.224330664 0.92675668 0.30132696
vn -0.143703803 0.988127828 0.0543365777
vn 0.133092523 0.848613858 0.511996925
vn 0.321612328 0.90602833 0.27509585
vn 0.146029547 0.646726191 0.748612583
vn 0.133092523 0.848613858 0.511996925
vn -0.0683576241 0.710180283 0.700693369
vn 0.482010305 0.805590212 0.344514579
vn 0.731892943 0.476931304 -0.486691982
vn 0.844425797 0.472705662 -0.251980692
vn 0.932135761 0.335704446 -0.135740429
vn 0.942139864 0.334894389 0.0147644188
vn 0.932135761 0.335704446 -0.135740429
vn 0.837428749 0.545189798 -0.0384796448
vn 0.942139864 0.334894389 0.0147644188
vn 0.84304291 0.370074093 0.390286416
vn 0.643095136 0.734748721 -0.215807438
vn 0.454350263 0.865585029 0.210543334
vn 0.696973741 0.638578475 0.326258719
vn 0.501833439 0.765364587 0.402964145
vn 0.454350263 0.865585029 0.210543334
vn -0.143506631 0.943945587 0.297275007
vn 0.501833439 0.765364587 0.402964145
vn 0.235294044 0.925670862 0.296260387
vn 0.837428749 0.545189798 -0.0384796448
vn 0.696973741 0.638578475 0.326258719
vn 0.84304291 0.370074093 0.390286416
vn 0.684148431 0.30487442 0.662564933
vn 0.482010305 0.805590212 0.344514579
vn 0.879411459 0.410929322 0.240358755
vn 0.774662375 0.616690457 0.139966145
vn 0.937590957 0.34773773 -0.00108817068
vn 0.903448224 0.0453634113 0.426290303
vn 0.879411459 0.410929322 0.240358755
vn 0.955249846 0.148006812 0.256108671
vn 0.937590957 0.34773773 -0.00108817068
vn 0.900180399 -0.097279489 0.424513519
vn 0.995506108 -0.0822356865 0.0469562598
vn 0.955249846 0.148006812 0.256108671
vn 0.965316713 0.249269068 -0.0776419044
vn 0.843256712 0.161951452 -0.51253283
vn 0.965316713 0.249269068 -0.0776419044
vn 0.909909189 0.327821553 -0.254161417
vn 0.914962292 0.360781342 -0.180777282
vn 0.779688418 0.283753335 -0.558184206
vn 0.909909189 0.327821553 -0.254161417
vn 0.875867009 0.437899113 -0.20273371
vn 0.914962292 0.360781342 -0.180777282
vn 0.541511953 0.759494603 -0.360461533
vn 0.875867009 0.437899113 -0.20273371
vn 0.321612328 0.90602833 0.27509585
vn 0.774662375 0.616690457 0.139966145
vn -0.781259656 0.375530511 0.498608202
vn -0.753614068 0.0571876541 0.654824793
vn -0.636444211 0.607564092 0.475189239
vn -0.622506022 0.290461063 0.72671771
vn -0.757120132 -0.0808162466 0.648257494
vn -0.753614068 0.0571876541 0.654824793
vn -0.55705899 -0.191432133 0.808108032
vn -0.545033455 -0.181624383 0.818505526
vn -0.679736733 -0.318042308 0.660913825
vn -0.55705899 -0.191432133 0.808108032
vn -0.524856091 -0.350934297 0.775480926
vn -0.499410391 -0.199681133 0.843040228
vn -0.386087984 -0.520367563 0.761678278
vn -0.524856091 -0.350934297 0.775480926
vn -0.325167567 -0.201409519 0.923958719
vn -0.499410391 -0.199681133 0.843040228
vn 0.0892280638 -0.242710605 0.96598655
vn -0.325167567 -0.201409519 0.923958719
vn 0.00994881801 0.0529375263 0.99854821
vn -0.148209974 -0.033598531 0.988384843
vn 0.45934701 0.118720375 0.88028729
vn 0.00994881801 0.0529375263 0.99854821
vn 0.377035767 0.20147337 0.904019952
vn 0.489867866 0.347301692 0.799631834
vn 0.835719109 0.0123238387 0.549018383
vn 0.45934701 0.118720375 0.88028729
vn 0.71686554 0.2714203 0.642211139
vn 0.489867866 0.347301692 0.799631834
vn 0.908034146 0.278995246 0.3124668
vn 0.71686554 0.2714203 0.642211139
vn 0.942139864 0.334894389 0.0147644188
vn 0.84304291 0.370074093 0.390286416
vn 0.133092523 0.848613858 0.511996925
vn 0.482010305 0.805590212 0.344514579
vn 0.321612328 0.90602833 0.27509585
vn 0.774662375 0.616690457 0.139966145
vn -0.143506631 0.943945587 0.297275007
vn -0.539951205 0.67685914 0.500314236
vn 0.235294044 0.925670862 0.296260387
vn 0.082530126 0.606540442 0.790757656
vn -0.677266955 0.623865664 0.390001267
vn -0.539951205 0.67685914 0.500314236
vn -0.636444211 0.607564092 0.475189239
vn -0.307075471 0.537560999 0.785323501
vn 0.696973741 0.638578475 0.326258719
vn 0.501833439 0.765364587 0.402964145
vn 0.684148431 0.30487442 0.662564933
vn 0.598208845 0.382968813 0.703903854
vn 0.501833439 0.765364587 0.402964145
vn 0.235294044 0.925670862 0.296260387
vn 0.082530126 0.606540442 0.790757656
vn 0.598208845 0.382968813 0.703903854
vn 0.71686554 0.2714203 0.642211139
vn 0.84304291 0.370074093 0.390286416
vn 0.684148431 0.30487442 0.662564933
vn 0.489867866 0.347301692 0.799631834
vn 0.875867009 0.437899113 -0.20273371
vn 0.774662375 0.616690457 0.139966145
vn 0.937590957 0.34773773 -0.00108817068
vn 0.914962292 0.360781342 -0.180777282
vn 0.955249846 0.148006812 0.256108671
vn 0.965316713 0.249269068 -0.0776419044
vn 0.937590957 0.34773773 -0.00108817068
vn 0.914962292 0.360781342 -0.180777282
vn -0.636444211 0.607564092 0.475189239
vn -0.622506022 0.290461063 0.72671771
vn -0.307075471 0.537560999 0.785323501
vn -0.0607153587 0.282874137 0.957233429
vn -0.753614068 0.0571876541 0.654824793
vn -0.622506022 0.290461063 0.72671771
vn -0.545033455 -0.181624383 0.818505526
vn -0.456285536 -0.0587469935 0.887891769
vn -0.55705899 -0.191432133 0.808108032
vn -0.545033455 -0.181624383 0.818505526
vn -0.499410391 -0.199681133 0.843040228
vn -0.344636083 -0.186270833 0.920070171
vn -0.325167567 -0.201409519 0.923958719
vn -0.499410391 -0.199681133 0.843040228
vn -0.148209974 -0.033598531 0.988384843
vn -0.344636083 -0.186270833 0.920070171
vn 0.00994881801 0.0529375263 0.99854821
vn -0.148209974 -0.033598531 0.988384843
vn 0.377035767 0.20147337 0.904019952
vn 0.161385715 0.0771013126 0.983874857
vn 0.377035767 0.20147337 0.904019952
vn 0.489867866 0.347301692 0.799631834
vn 0.459035188 0.15957661 0.873969078
vn 0.313513011 0.219691232 0.923821032
vn -0.539951205 0.67685914 0.500314236
vn 0.082530126 0.606540442 0.790757656
vn -0.307075471 0.537560999 0.785323501
vn 0.186785057 0.25582695 0.948506236
vn 0.684148431 0.30487442 0.662564933
vn 0.489867866 0.347301692 0.799631834
vn 0.598208845 0.382968813 0.703903854
vn 0.459035188 0.15957661 0.873969078
vn 0.082530126 0.606540442 0.790757656
vn 0.598208845 0.382968813 0.703903854
vn 0.459035188 0.15957661 0.873969078
vn 0.186785057 0.25582695 0.948506236
vn -0.307075471 0.537560999 0.785323501
vn -0.0607153587 0.282874137 0.957233429
vn 0.186785057 0.25582695 0.948506236
vn 0.244146675 0.134775013 0.960327089
vn -0.622506022 0.290461063 0.72671771
vn -0.0607153587 0.282874137 0.957233429
vn -0.456285536 -0.0587469935 0.887891769
vn -0.083824724 -0.0717983246 0.993890524
vn -0.545033455 -0.181624383 0.818505526
vn -0.456285536 -0.0587469935 0.887891769
vn -0.344636083 -0.186270833 0.920070171
vn -0.083824724 -0.0717983246 0.993890524
vn -0.148209974 -0.033598531 0.988384843
vn -0.344636083 -0.186270833 0.920070171
vn 0.161385715 0.0771013126 0.983874857
vn -0.083824724 -0.0717983246 0.993890524
vn 0.377035767 0.20147337 0.904019952
vn 0.161385715 0.0771013126 0.983874857
vn 0.313513011 0.219691232 0.923821032
vn 0.244146675 0.134775013 0.960327089
vn 0.459035188 0.15957661 0.873969078
vn 0.313513011 0.219691232 0.923821032
vn 0.186785057 0.25582695 0.948506236
vn 0.244146675 0.134775013 0.960327089
vn -0.0607153587 0.282874137 0.957233429
vn 0.161385715 0.0771013126 0.983874857
vn 0.244146675 0.134775013 0.960327089
vn -0.083824724 -0.0717983246 0.993890524
g 
f 2//2 1//1 3//3 4//4
f 7//7 5//5 6//6 8//8
f 9//9 11//11 12//12 10//10
f 16//16 15//15 13//13 14//14
f 17//17 19//19 20//20 18//18
f 24//24 23//23 21//21 22//22
f 27//27 26//26 25//25 28//28
f 30//30 29//29 31//31 32//32
f 34//34 36//36 35//35 33//33
f 38//38 40//40 39//39 37//37
f 44//44 43//43 41//41 42//42
f 45//45 47//47 48//48 46//46
f 52//52 51//51 49//49 50//50
f 53//53 54//54 56//56 55//55
f 58//58 60//60 59//59 57//57
f 63//63 61//61 62//62 64//64
f 66//66 65//65 67//67 68//68
f 70//70 72//72 71//71 69//69
f 75//75 73//73 74//74 76//76
f 78//78 80//80 79//79 77//77
f 83//83 81//81 82//82 84//84
f 85//85 86//86 88//88 87//87
f 92//92 91//91 89//89 90//90
f 93//93 94//94 96//96 95//95
f 100//100 99//99 97//97 98//98
f 102//102 101//101 103//103 104//104
f 107//107 108//108 105//105 106//106
f 111//111 109//109 110//110 112//112
f 114//114 115//115 116//116 113//113
f 119//119 120//120 118//118 117//117
f 123//123 121//121 122//122 124//124
f 126//126 125//125 128//128 127//127
f 132//132 131//131 129//129 130//130
f 134//134 136//136 135//135 133//133
f 139//139 138//138 137//137 140//140
f 142//142 141//141 143//143 144//144
f 148//148 147//147 145//145 146//146
f 152//152 150//150 149//149 151//151
f 154//154 153//153 155//155 156//156
f 158//158 157//157 159//159 160//160
f 162//162 164//164 163//163 161//161
f 166//166 165//165 167//167 168//168
f 171//171 169//169 170//170 172//172
f 175//175 176//176 173//173 174//174
f 179//179 177//177 178//178 180//180
f 181//181 182//182 184//184 183//183
f 187//187 188//188 185//185 186//186
f 190//190 192//192 191//191 189//189
f 195//195 193//193 194//194 196//196
f 197//197 200//200 199//199 198//198
f 204//204 201//201 203//203 202//202
f 205//205 207//207 208//208 206//206
f 209//209 211//211 212//212 210//210
f 216//216 215//215 213//213 214//214
f 217//217 218//218 220//220 219//219
f 223//223 224//224 221//221 222//222
f 225//225 227//227 228//228 226//226
f 232//232 231//231 229//229 230//230
f 234//234 233//233 235//235 236//236
f 237//237 240//240 238//238 239//239
f 241//241 243//243 242//242 244//244
f 246//246 245//245 247//247 248//248
f 252//252 250//250 249//249 251//251
f 256//256 255//255 253//253 254//254
f 258//258 257//257 259//259 260//260
f 262//262 263//263 264//264 261//261
f 268//268 267//267 266//266 265//265
f 270//270 269//269 271//271 272//272
f 274//274 276//276 275//275 273//273
f 277//277 279//279 280//280 278//278
f 281//281 283//283 284//284 282//282
f 287//287 288//288 285//285 286//286
f 289//289 291//291 292//292 290//290
f 295//295 293//293 294//294 296//296
f 299//299 300//300 298//298 297//297
f 303//303 301//301 302//302 304//304
f 306//306 305//305 307//307 308//308
f 309//309 311//311 312//312 310//310
f 313//313 315//315 316//316 314//314
f 320//320 319//319 317//317 318//318
f 322//322 321//321 324//324 323//323
f 328//328 327//327 325//325 326//326
f 330//330 332//332 331//331 329//329
f 334//334 336//336 335//335 333//333
f 339//339 338//338 337//337 340//340
f 342//342 341//341 343//343 344//344
f 345//345 347//347 348//348 346//346
f 352//352 351//351 349//349 350//350
f 356//356 354//354 353//353 355//355
f 360//360 359//359 357//357 358//358
f 362//362 361//361 363//363 364//364
f 365//365 367//367 368//368 366//366
f 372//372 370//370 369//369 371//371
f 374//374 373//373 375//375 376//376
f 378//378 380//380 379//379 377//377
f 383//383 381//381 382//382 384//384
f 386//386 388//388 387//387 385//385
f 389//389 391//391 392//392 390//390
f 396//396 395//395 393//393 394//394
f 397//397 398//398 400//400 399//399
f 401//401 403//403 404//404 402//402
f 405//405 406//406 408//408 407//407
f 412//412 411//411 409//409 410//410
f 413//413 414//414 416//416 415//415
f 419//419 420//420 417//417 418//418
f 421//421 424//424 423//423 422//422
f 426//426 425//425 427//427 428//428
f 430//430 432//432 431//431 429//429
f 435//435 433//433 434//434 436//436
f 440//440 439//439 437//437 438//438
f 442//442 441//441 443//443 444//444
f 447//447 445//445 446//446 448//448
f 450//450 449//449 451//451 452//452
f 453//453 455//455 456//456 454//454
f 460//460 459//459 457//457 458//458
f 462//462 461//461 463//463 464//464
f 468//468 465//465 466//466 467//467
f 471//471 472//472 470//470 469//469
f 474//474 473//473 475//475 476//476
f 477//477 479//479 480//480 478//478
f 484//484 483//483 481//481 482//482
f 485//485 486//486 488//488 487//487
f 492//492 491//491 489//489 490//490
f 494//494 496//496 495//495 493//493
f 499//499 497//497 498//498 500//500
f 502//502 504//504 503//503 501//501
f 507//507 506//506 505//505 508//508
f 511//511 510//510 512//512 509//509
f 514//514 513//513 515//515 516//516
f 518//518 520//520 519//519 517//517
f 523//523 521//521 522//522 524//524
f 527//527 525//525 526//526 528//528
f 530//530 532//532 531//531 529//529
f 535//535 534//534 533//533 536//536
f 537//537 538//538 540//540 539//539
f 544//544 543//543 541//541 542//542
f 545//545 546//546 548//548 547//547
f 551//551 549//549 550//550 552//552
f 554//554 556//556 553//553 555//555
f 560//560 559//559 557//557 558//558
f 562//562 561//561 563//563 564//564
f 565//565 567//567 568//568 566//566
f 571//571 572//572 570//570 569//569
f 576//576 574//574 573//573 575//575
f 578//578 577//577 579//579 580//580
f 583//583 581//581 582//582 584//584
f 587//587 588//588 586//586 585//585
f 589//589 590//590 592//592 591//591
f 596//596 595//595 593//593 594//594
f 597//597 598//598 600//600 599//599
f 601//601 603//603 604//604 602//602
f 608//608 607//607 605//605 606//606
f 609//609 610//610 612//612 611//611
f 616//616 615//615 613//613 614//614
f 617//617 618//618 620//620 619//619
f 623//623 624//624 621//621 622//622
f 626//626 628//628 627//627 625//625
f 631//631 629//629 630//630 632//632
f 636//636 634//634 633//633 635//635
f 637//637 639//639 640//640 638//638
f 644//644 643//643 641//641 642//642
f 646//646 645//645 647//647 648//648
f 651//651 650//650 649//649 652//652
f 653//653 656//656 655//655 654//654
f 658//658 657//657 660//660 659//659
f 664//664 662//662 661//661 663//663
f 666//666 665//665 667//667 668//668
f 670//670 672//672 671//671 669//669
f 675//675 673//673 674//674 676//676
f 679//679 677//677 678//678 680//680
f 682//682 684//684 683//683 681//681
f 687//687 686//686 685//685 688//688
f 690//690 692//692 691//691 689//689
f 693//693 694//694 696//696 695//695
f 699//699 700//700 697//697 698//698
f 701//701 703//703 704//704 702//702
f 708//708 707//707 705//705 706//706
f 709//709 710//710 712//712 711//711
f 716//716 715//715 713//713 714//714
f 717//717 718//718 720//720 719//719
f 724//724 723//723 721//721 722//722
f 727//727 726//726 728//728 725//725
